<svg width="100" height="100" viewBox="0 0 100 100" xmlns="http://www.w3.org/2000/svg" xmlns:xlink="http://www.w3.org/1999/xlink">
    <defs>
        <path id="zm7133fm0a" d="M0 0h36v41H0z"/>
    </defs>
    <g fill="none" fill-rule="evenodd">
        <path d="M0 0h100v100H0z"/>
        <path d="M42.435 35.624c3.506 2.626 3.398 7.846-.204 10.342-1.39.963-2.78 1.916-4.18 2.856-.357.24-1.302.076-1.686-.24-1.829-1.506-3.48-1.147-5.252.105-6.396 4.52-12.823 8.995-19.243 13.48-.31.218-.628.425-.947.63-.599.382-1.411.21-1.777-.394-.979-1.614-.642-2.446 1.17-3.754 3.414-2.464 6.888-4.847 10.335-7.266.483-.339 1.167-.593 1.389-1.058.081-.17.146-.347.201-.529.343-1.143-.521-2.35-1.728-2.248a1.001 1.001 0 0 0-.441.13c-2.52 1.54-4.885 3.324-7.314 5.007-1.397.968-2.802 1.923-4.203 2.88-.588.4-1.403.23-1.769-.375-1.08-1.783-.732-2.4 1.275-3.825 3.615-2.566 7.262-5.089 10.89-7.637.991-.697 2.125-1.475 1.204-2.829-.982-1.442-2.174-.744-3.265.027a3749.35 3749.35 0 0 1-9.605 6.766 30.29 30.29 0 0 1-1.02.679 1.253 1.253 0 0 1-1.706-.342c-1.139-1.67-.777-2.492 1.161-3.85 3.39-2.373 6.792-4.73 10.156-7.138 1.083-.777 2.878-1.551 1.66-3.203-1.262-1.713-2.65-.308-3.823.5-3.226 2.223-6.416 4.495-9.626 6.74-.61.424-1.482.225-1.796-.442-.644-1.366-.231-2.595 1.365-3.762 4.353-3.183 8.798-6.243 13.207-9.35 1.992-1.405 3.922-2.913 6.02-4.145.712-.419 2.149-.54 2.749-.11 4.484 3.21 11.545 8.415 16.803 12.355" fill="#FF6700"/>
        <path d="M66.45 40.648c-1.403 4.11-6.43 5.67-9.957 3.102-1.36-.991-2.712-1.986-4.054-2.993-.343-.257-.485-1.191-.304-1.65.862-2.187-.004-3.615-1.762-4.87-6.346-4.531-12.66-9.107-18.982-13.672a28.524 28.524 0 0 1-.928-.705 1.221 1.221 0 0 1-.16-1.762c1.235-1.429 2.137-1.379 3.961-.104 3.437 2.403 6.815 4.887 10.22 7.335.478.344.937.901 1.452.96.188.022.378.026.57.02 1.201-.045 2.082-1.235 1.603-2.329a.973.973 0 0 0-.265-.37c-2.269-1.863-4.724-3.502-7.103-5.234-1.367-.996-2.725-2.003-4.084-3.007a1.213 1.213 0 0 1-.2-1.77c1.363-1.576 2.064-1.448 4.061-.028 3.598 2.558 7.165 5.159 10.75 7.735.98.703 2.083 1.514 3.087.223 1.069-1.375.024-2.265-1.058-3.039a3805.045 3805.045 0 0 1-9.51-6.812c-.331-.238-.654-.486-.973-.736a1.216 1.216 0 0 1-.213-1.703c1.238-1.593 2.138-1.518 4.05-.14 3.342 2.409 6.672 4.835 10.04 7.207 1.086.764 2.395 2.194 3.59.532 1.239-1.723-.544-2.573-1.689-3.41-3.146-2.304-6.328-4.56-9.491-6.841-.599-.433-.685-1.312-.146-1.817 1.103-1.036 2.409-1.042 4.03.077 4.421 3.05 8.755 6.225 13.122 9.352 1.974 1.412 4.028 2.734 5.87 4.3.625.532 1.195 1.835.975 2.531-1.653 5.208-4.397 13.456-6.502 19.618" fill="#FF2F00"/>
        <path d="M45.291 73.408C44.004 69.21 47.15 64.962 51.525 65c1.698.015 3.391.039 5.083.078.432.01 1.1.696 1.224 1.18.593 2.305 2.141 2.97 4.311 2.97 7.835-.004 15.671.047 23.507.085.39.002.781.017 1.17.034.693.033 1.23.622 1.176 1.316-.15 1.935-.908 2.43-3.16 2.455-4.213.044-8.427-.013-12.64-.025-.591-.001-1.294-.19-1.747.064a3.76 3.76 0 0 0-.475.32c-.95.743-.96 2.24.075 2.858.142.085.287.14.434.15 2.945.197 5.909.102 8.866.128 1.7.015 3.398.045 5.096.072.712.012 1.27.627 1.21 1.338-.176 2.098-.821 2.406-3.284 2.412-4.435.012-8.871-.031-13.307-.041-1.213-.003-2.588-.022-2.64 1.63-.055 1.76 1.32 1.878 2.657 1.878 3.919 0 7.837 0 11.755.012.409.001.818.016 1.224.034a1.24 1.24 0 0 1 1.181 1.278c-.064 2.037-.84 2.504-3.206 2.494-4.14-.016-8.28-.053-12.42-.024-1.334.009-3.242-.397-3.23 1.673.013 2.146 1.963 1.796 3.389 1.813 3.918.045 7.837.029 11.756.046.743.004 1.332.677 1.193 1.41-.283 1.5-1.34 2.273-3.32 2.306-5.395.09-10.793.026-16.19.023-2.44-.002-4.89.118-7.312-.087-.823-.07-2.056-.806-2.289-1.51-1.737-5.255-4.386-13.654-6.32-19.962" fill="#FF6700"/>
        <g transform="translate(62 24)">
            <mask id="zo8efmctnb" fill="#fff">
                <use xlink:href="#zm7133fm0a"/>
            </mask>
            <path d="M6.227 40.89c-4.274-.06-7.248-4.296-5.899-8.39.52-1.578 1.047-3.15 1.588-4.716.138-.4.972-.82 1.457-.79 2.309.14 3.388-1.11 4.037-3.142 2.342-7.337 4.736-14.659 7.118-21.984.115-.354.241-.705.37-1.053.243-.656.978-.991 1.617-.721 1.71.72 1.934 1.582 1.286 3.683-1.22 3.957-2.535 7.886-3.808 11.827-.178.553-.563 1.154-.464 1.655.036.183.089.363.153.54.403 1.114 1.783 1.575 2.665.792a.964.964 0 0 0 .268-.362c1.065-2.698 1.864-5.502 2.774-8.262.523-1.587 1.06-3.169 1.593-4.75a1.2 1.2 0 0 1 1.6-.73c1.886.797 1.977 1.493 1.245 3.8-1.317 4.158-2.685 8.298-4.023 12.448-.366 1.135-.795 2.417.717 2.962 1.61.582 2.131-.67 2.532-1.921a3609.07 3609.07 0 0 1 3.53-11.003c.125-.382.26-.76.4-1.136a1.201 1.201 0 0 1 1.53-.722c1.868.674 2.067 1.541 1.35 3.755-1.255 3.871-2.53 7.737-3.743 11.621-.39 1.252-1.338 2.917.58 3.528 1.988.635 2.249-1.297 2.69-2.627 1.215-3.655 2.374-7.329 3.564-10.993.226-.694 1.024-1.043 1.66-.693 1.303.718 1.7 1.94 1.138 3.803-1.532 5.08-3.208 10.114-4.828 15.167-.731 2.283-1.354 4.613-2.269 6.82-.31.749-1.361 1.682-2.08 1.688-5.38.044-13.938-.006-20.348-.095" fill="#E5DDDD" mask="url(#zo8efmctnb)"/>
        </g>
        <path d="M30.244 55.214c3.482-2.542 8.395-.914 9.724 3.23a356.474 356.474 0 0 1 1.513 4.825c.125.41-.3 1.258-.71 1.529-1.949 1.288-2.082 2.96-1.404 5.01 2.447 7.398 4.844 14.814 7.253 22.226.12.37.228.743.332 1.116.187.665-.19 1.358-.85 1.527-1.837.468-2.533-.09-3.257-2.21-1.356-3.964-2.617-7.961-3.92-11.944-.183-.559-.228-1.282-.603-1.63a3.744 3.744 0 0 0-.444-.347c-.984-.662-2.373-.2-2.622.974a.992.992 0 0 0-.003.457c.735 2.844 1.748 5.613 2.646 8.413.516 1.61 1.018 3.224 1.522 4.836.211.676-.183 1.397-.86 1.566-1.997.496-2.483-.015-3.256-2.34-1.395-4.184-2.738-8.387-4.112-12.58-.376-1.146-.788-2.45-2.332-1.977-1.646.505-1.327 1.84-.91 3.103 1.223 3.7 2.444 7.4 3.655 11.104.126.387.24.778.35 1.168a1.237 1.237 0 0 1-.814 1.519c-1.905.583-2.579-.003-3.308-2.24-1.276-3.915-2.533-7.837-3.85-11.737-.425-1.256-.645-3.188-2.556-2.521-1.982.69-1.05 2.421-.621 3.773 1.18 3.715 2.418 7.41 3.624 11.117.227.703-.211 1.471-.932 1.572-1.478.207-2.522-.548-3.17-2.406-1.767-5.067-3.391-10.185-5.07-15.283-.76-2.304-1.635-4.58-2.2-6.932-.193-.8.104-2.197.682-2.639 4.322-3.302 11.269-8.458 16.503-12.279" fill="#FF2F00"/>
    </g>
</svg>
