<?xml version="1.0" encoding="UTF-8" standalone="no" ?>
<!DOCTYPE svg PUBLIC "-//W3C//DTD SVG 1.1//EN" "http://www.w3.org/Graphics/SVG/1.1/DTD/svg11.dtd">
<svg xmlns="http://www.w3.org/2000/svg" xmlns:xlink="http://www.w3.org/1999/xlink" version="1.1" width="100" height="100" viewBox="0 0 100 100" xml:space="preserve">
<desc>Created with Fabric.js 3.6.6</desc>
<defs>
</defs>
<g transform="matrix(1 0 0 1 50 50)"  >
<g style=""   >
		<g transform="matrix(1 0 0 1 0 0)"  >
<path style="stroke: none; stroke-width: 1; stroke-dasharray: none; stroke-linecap: butt; stroke-dashoffset: 0; stroke-linejoin: miter; stroke-miterlimit: 4; fill: none; fill-rule: evenodd; opacity: 1;"  transform=" translate(-50, -50)" d="M 0 0 h 100 v 100 H 0 z" stroke-linecap="round" />
</g>
		<g transform="matrix(1 0 0 1 -26.5 -7)"  >
<path style="stroke: none; stroke-width: 1; stroke-dasharray: none; stroke-linecap: butt; stroke-dashoffset: 0; stroke-linejoin: miter; stroke-miterlimit: 4; fill: rgb(255,103,0); fill-rule: evenodd; opacity: 1;"  transform=" translate(-23.5, -43)" d="M 42.435 35.624 c 3.506 2.626 3.398 7.846 -0.204 10.342 c -1.39 0.963 -2.78 1.916 -4.18 2.856 c -0.357 0.24 -1.302 0.076 -1.686 -0.24 c -1.829 -1.506 -3.48 -1.147 -5.252 0.105 c -6.396 4.52 -12.823 8.995 -19.243 13.48 c -0.31 0.218 -0.628 0.425 -0.947 0.63 c -0.599 0.382 -1.411 0.21 -1.777 -0.394 c -0.979 -1.614 -0.642 -2.446 1.17 -3.754 c 3.414 -2.464 6.888 -4.847 10.335 -7.266 c 0.483 -0.339 1.167 -0.593 1.389 -1.058 c 0.081 -0.17 0.146 -0.347 0.201 -0.529 c 0.343 -1.143 -0.521 -2.35 -1.728 -2.248 a 1.001 1.001 0 0 0 -0.441 0.13 c -2.52 1.54 -4.885 3.324 -7.314 5.007 c -1.397 0.968 -2.802 1.923 -4.203 2.88 c -0.588 0.4 -1.403 0.23 -1.769 -0.375 c -1.08 -1.783 -0.732 -2.4 1.275 -3.825 c 3.615 -2.566 7.262 -5.089 10.89 -7.637 c 0.991 -0.697 2.125 -1.475 1.204 -2.829 c -0.982 -1.442 -2.174 -0.744 -3.265 0.027 a 3749.35 3749.35 0 0 1 -9.605 6.766 a 30.29 30.29 0 0 1 -1.02 0.679 a 1.253 1.253 0 0 1 -1.706 -0.342 c -1.139 -1.67 -0.777 -2.492 1.161 -3.85 c 3.39 -2.373 6.792 -4.73 10.156 -7.138 c 1.083 -0.777 2.878 -1.551 1.66 -3.203 c -1.262 -1.713 -2.65 -0.308 -3.823 0.5 c -3.226 2.223 -6.416 4.495 -9.626 6.74 c -0.61 0.424 -1.482 0.225 -1.796 -0.442 c -0.644 -1.366 -0.231 -2.595 1.365 -3.762 c 4.353 -3.183 8.798 -6.243 13.207 -9.35 c 1.992 -1.405 3.922 -2.913 6.02 -4.145 c 0.712 -0.419 2.149 -0.54 2.749 -0.11 c 4.484 3.21 11.545 8.415 16.803 12.355" stroke-linecap="round" />
</g>
		<g transform="matrix(1 0 0 1 1.5 -25.5)"  >
<path style="stroke: none; stroke-width: 1; stroke-dasharray: none; stroke-linecap: butt; stroke-dashoffset: 0; stroke-linejoin: miter; stroke-miterlimit: 4; fill: rgb(255,47,0); fill-rule: evenodd; opacity: 1;"  transform=" translate(-51.5, -24.5)" d="M 66.45 40.648 c -1.403 4.11 -6.43 5.67 -9.957 3.102 c -1.36 -0.991 -2.712 -1.986 -4.054 -2.993 c -0.343 -0.257 -0.485 -1.191 -0.304 -1.65 c 0.862 -2.187 -0.004 -3.615 -1.762 -4.87 c -6.346 -4.531 -12.66 -9.107 -18.982 -13.672 a 28.524 28.524 0 0 1 -0.928 -0.705 a 1.221 1.221 0 0 1 -0.16 -1.762 c 1.235 -1.429 2.137 -1.379 3.961 -0.104 c 3.437 2.403 6.815 4.887 10.22 7.335 c 0.478 0.344 0.937 0.901 1.452 0.96 c 0.188 0.022 0.378 0.026 0.57 0.02 c 1.201 -0.045 2.082 -1.235 1.603 -2.329 a 0.973 0.973 0 0 0 -0.265 -0.37 c -2.269 -1.863 -4.724 -3.502 -7.103 -5.234 c -1.367 -0.996 -2.725 -2.003 -4.084 -3.007 a 1.213 1.213 0 0 1 -0.2 -1.77 c 1.363 -1.576 2.064 -1.448 4.061 -0.028 c 3.598 2.558 7.165 5.159 10.75 7.735 c 0.98 0.703 2.083 1.514 3.087 0.223 c 1.069 -1.375 0.024 -2.265 -1.058 -3.039 a 3805.045 3805.045 0 0 1 -9.51 -6.812 c -0.331 -0.238 -0.654 -0.486 -0.973 -0.736 a 1.216 1.216 0 0 1 -0.213 -1.703 c 1.238 -1.593 2.138 -1.518 4.05 -0.14 c 3.342 2.409 6.672 4.835 10.04 7.207 c 1.086 0.764 2.395 2.194 3.59 0.532 c 1.239 -1.723 -0.544 -2.573 -1.689 -3.41 c -3.146 -2.304 -6.328 -4.56 -9.491 -6.841 c -0.599 -0.433 -0.685 -1.312 -0.146 -1.817 c 1.103 -1.036 2.409 -1.042 4.03 0.077 c 4.421 3.05 8.755 6.225 13.122 9.352 c 1.974 1.412 4.028 2.734 5.87 4.3 c 0.625 0.532 1.195 1.835 0.975 2.531 c -1.653 5.208 -4.397 13.456 -6.502 19.618" stroke-linecap="round" />
</g>
		<g transform="matrix(1 0 0 1 16.5 30)"  >
<path style="stroke: none; stroke-width: 1; stroke-dasharray: none; stroke-linecap: butt; stroke-dashoffset: 0; stroke-linejoin: miter; stroke-miterlimit: 4; fill: rgb(255,103,0); fill-rule: evenodd; opacity: 1;"  transform=" translate(-66.5, -80)" d="M 45.291 73.408 C 44.004 69.21 47.15 64.962 51.525 65 c 1.698 0.015 3.391 0.039 5.083 0.078 c 0.432 0.01 1.1 0.696 1.224 1.18 c 0.593 2.305 2.141 2.97 4.311 2.97 c 7.835 -0.004 15.671 0.047 23.507 0.085 c 0.39 0.002 0.781 0.017 1.17 0.034 c 0.693 0.033 1.23 0.622 1.176 1.316 c -0.15 1.935 -0.908 2.43 -3.16 2.455 c -4.213 0.044 -8.427 -0.013 -12.64 -0.025 c -0.591 -0.001 -1.294 -0.19 -1.747 0.064 a 3.76 3.76 0 0 0 -0.475 0.32 c -0.95 0.743 -0.96 2.24 0.075 2.858 c 0.142 0.085 0.287 0.14 0.434 0.15 c 2.945 0.197 5.909 0.102 8.866 0.128 c 1.7 0.015 3.398 0.045 5.096 0.072 c 0.712 0.012 1.27 0.627 1.21 1.338 c -0.176 2.098 -0.821 2.406 -3.284 2.412 c -4.435 0.012 -8.871 -0.031 -13.307 -0.041 c -1.213 -0.003 -2.588 -0.022 -2.64 1.63 c -0.055 1.76 1.32 1.878 2.657 1.878 c 3.919 0 7.837 0 11.755 0.012 c 0.409 0.001 0.818 0.016 1.224 0.034 a 1.24 1.24 0 0 1 1.181 1.278 c -0.064 2.037 -0.84 2.504 -3.206 2.494 c -4.14 -0.016 -8.28 -0.053 -12.42 -0.024 c -1.334 0.009 -3.242 -0.397 -3.23 1.673 c 0.013 2.146 1.963 1.796 3.389 1.813 c 3.918 0.045 7.837 0.029 11.756 0.046 c 0.743 0.004 1.332 0.677 1.193 1.41 c -0.283 1.5 -1.34 2.273 -3.32 2.306 c -5.395 0.09 -10.793 0.026 -16.19 0.023 c -2.44 -0.002 -4.89 0.118 -7.312 -0.087 c -0.823 -0.07 -2.056 -0.806 -2.289 -1.51 c -1.737 -5.255 -4.386 -13.654 -6.32 -19.962" stroke-linecap="round" />
</g>
		<g transform="matrix(1 0 0 1 30 -5.5)"  >
<path style="stroke: none; stroke-width: 1; stroke-dasharray: none; stroke-linecap: butt; stroke-dashoffset: 0; stroke-linejoin: miter; stroke-miterlimit: 4; fill: rgb(229,221,221); fill-rule: evenodd; opacity: 1;"  transform=" translate(-18, -20.5)" d="M 6.227 40.89 c -4.274 -0.06 -7.248 -4.296 -5.899 -8.39 c 0.52 -1.578 1.047 -3.15 1.588 -4.716 c 0.138 -0.4 0.972 -0.82 1.457 -0.79 c 2.309 0.14 3.388 -1.11 4.037 -3.142 c 2.342 -7.337 4.736 -14.659 7.118 -21.984 c 0.115 -0.354 0.241 -0.705 0.37 -1.053 c 0.243 -0.656 0.978 -0.991 1.617 -0.721 c 1.71 0.72 1.934 1.582 1.286 3.683 c -1.22 3.957 -2.535 7.886 -3.808 11.827 c -0.178 0.553 -0.563 1.154 -0.464 1.655 c 0.036 0.183 0.089 0.363 0.153 0.54 c 0.403 1.114 1.783 1.575 2.665 0.792 a 0.964 0.964 0 0 0 0.268 -0.362 c 1.065 -2.698 1.864 -5.502 2.774 -8.262 c 0.523 -1.587 1.06 -3.169 1.593 -4.75 a 1.2 1.2 0 0 1 1.6 -0.73 c 1.886 0.797 1.977 1.493 1.245 3.8 c -1.317 4.158 -2.685 8.298 -4.023 12.448 c -0.366 1.135 -0.795 2.417 0.717 2.962 c 1.61 0.582 2.131 -0.67 2.532 -1.921 a 3609.07 3609.07 0 0 1 3.53 -11.003 c 0.125 -0.382 0.26 -0.76 0.4 -1.136 a 1.201 1.201 0 0 1 1.53 -0.722 c 1.868 0.674 2.067 1.541 1.35 3.755 c -1.255 3.871 -2.53 7.737 -3.743 11.621 c -0.39 1.252 -1.338 2.917 0.58 3.528 c 1.988 0.635 2.249 -1.297 2.69 -2.627 c 1.215 -3.655 2.374 -7.329 3.564 -10.993 c 0.226 -0.694 1.024 -1.043 1.66 -0.693 c 1.303 0.718 1.7 1.94 1.138 3.803 c -1.532 5.08 -3.208 10.114 -4.828 15.167 c -0.731 2.283 -1.354 4.613 -2.269 6.82 c -0.31 0.749 -1.361 1.682 -2.08 1.688 c -5.38 0.044 -13.938 -0.006 -20.348 -0.095" stroke-linecap="round" />
</g>
		<g transform="matrix(1 0 0 1 -20 24.5)"  >
<path style="stroke: none; stroke-width: 1; stroke-dasharray: none; stroke-linecap: butt; stroke-dashoffset: 0; stroke-linejoin: miter; stroke-miterlimit: 4; fill: rgb(255,47,0); fill-rule: evenodd; opacity: 1;"  transform=" translate(-30, -74.5)" d="M 30.244 55.214 c 3.482 -2.542 8.395 -0.914 9.724 3.23 a 356.474 356.474 0 0 1 1.513 4.825 c 0.125 0.41 -0.3 1.258 -0.71 1.529 c -1.949 1.288 -2.082 2.96 -1.404 5.01 c 2.447 7.398 4.844 14.814 7.253 22.226 c 0.12 0.37 0.228 0.743 0.332 1.116 c 0.187 0.665 -0.19 1.358 -0.85 1.527 c -1.837 0.468 -2.533 -0.09 -3.257 -2.21 c -1.356 -3.964 -2.617 -7.961 -3.92 -11.944 c -0.183 -0.559 -0.228 -1.282 -0.603 -1.63 a 3.744 3.744 0 0 0 -0.444 -0.347 c -0.984 -0.662 -2.373 -0.2 -2.622 0.974 a 0.992 0.992 0 0 0 -0.003 0.457 c 0.735 2.844 1.748 5.613 2.646 8.413 c 0.516 1.61 1.018 3.224 1.522 4.836 c 0.211 0.676 -0.183 1.397 -0.86 1.566 c -1.997 0.496 -2.483 -0.015 -3.256 -2.34 c -1.395 -4.184 -2.738 -8.387 -4.112 -12.58 c -0.376 -1.146 -0.788 -2.45 -2.332 -1.977 c -1.646 0.505 -1.327 1.84 -0.91 3.103 c 1.223 3.7 2.444 7.4 3.655 11.104 c 0.126 0.387 0.24 0.778 0.35 1.168 a 1.237 1.237 0 0 1 -0.814 1.519 c -1.905 0.583 -2.579 -0.003 -3.308 -2.24 c -1.276 -3.915 -2.533 -7.837 -3.85 -11.737 c -0.425 -1.256 -0.645 -3.188 -2.556 -2.521 c -1.982 0.69 -1.05 2.421 -0.621 3.773 c 1.18 3.715 2.418 7.41 3.624 11.117 c 0.227 0.703 -0.211 1.471 -0.932 1.572 c -1.478 0.207 -2.522 -0.548 -3.17 -2.406 c -1.767 -5.067 -3.391 -10.185 -5.07 -15.283 c -0.76 -2.304 -1.635 -4.58 -2.2 -6.932 c -0.193 -0.8 0.104 -2.197 0.682 -2.639 c 4.322 -3.302 11.269 -8.458 16.503 -12.279" stroke-linecap="round" />
</g>
</g>
</g>
</svg>