<svg width="146" height="187" viewBox="0 0 146 187" fill="none" xmlns="http://www.w3.org/2000/svg">
<path d="M73.2705 21.7507L3.07666 63.2108L74.4089 104.671L145.333 63.0336L73.2705 21.7507ZM15.1909 63.3773L74.1189 28.5704L134.62 63.2323L75.0747 98.1896L15.1909 63.3773Z" fill="url(#paint0_linear_1121_14076)"/>
<path d="M124.251 86.4083C125.272 84.9209 126.485 83.7879 127.892 83.0092L138.175 77.3119L145.398 73.4886L145.408 62.835L74.436 104.478L74.2104 186.716L145.312 144.568L145.387 81.3124L129.713 90.0812V109.622C129.713 111.125 131.468 111.92 133.675 110.696C136.57 109.09 138.331 108.532 140.259 109.01C142.321 109.504 143.352 111.093 143.352 113.783V136.213C143.352 137.545 142.831 138.962 141.795 140.471C140.785 141.964 139.582 143.102 138.175 143.876L99.0081 167.326L100.399 158.283L136.333 136.6V119.293C136.333 117.773 135.227 117.628 133.02 118.847C130.142 120.442 127.736 121.983 125.809 121.516C123.747 121.022 122.716 118.128 122.716 115.443V90.6666C122.716 89.3456 123.226 87.9226 124.251 86.4083ZM92.4462 169.688L79.8595 177.292L78.4794 110.551L85.5622 106.626C86.4213 147.404 85.632 106.765 86.6791 164.968C94.2827 102.05 86.6791 164.968 94.4653 101.825L101.569 97.8889L92.4462 169.688ZM129.949 126.08V132.733L105.296 146.974V96.1706L118.764 88.4703V95.6443L110.585 100.176V115.899L117.394 112.124V119.379L110.585 123.154V137.153L129.949 126.08Z" fill="url(#paint1_linear_1121_14076)"/>
<path d="M74.6239 64.2741C83.033 62.1584 91.8985 62.8297 94.4277 65.7723C96.9569 68.7149 92.1885 72.8228 83.7794 74.9385C75.3703 77.0542 66.5048 76.383 63.9757 73.4403C61.4519 70.4977 66.2149 66.3952 74.6239 64.2741Z" fill="#27AAE1"/>
<path d="M96.9567 71.9529L93.6114 73.1396L89.7183 62.1584H96.9567V71.9529Z" fill="#27AAE1"/>
<path d="M93.6112 73.1396L93.0903 73.3222L89.1328 62.1584H89.7181L93.6112 73.1396Z" fill="#27AAE1"/>
<path d="M93.0902 73.3222L92.5693 73.5101L88.542 62.1584H89.1327L93.0902 73.3222Z" fill="#27AAE1"/>
<path d="M92.5697 73.5101L92.0542 73.6927L87.957 62.1584H88.5423L92.5697 73.5101Z" fill="#27AAE1"/>
<path d="M92.054 73.6927L91.5332 73.8753L87.3716 62.1584H87.9569L92.054 73.6927Z" fill="#27AAE1"/>
<path d="M91.533 73.8753L91.0122 74.0632L86.7861 62.1584H87.3714L91.533 73.8753Z" fill="#27AAE1"/>
<path d="M91.0125 74.0632L90.4916 74.2458L86.2012 62.1584H86.7865L91.0125 74.0632Z" fill="#27AAE1"/>
<path d="M90.4915 74.2458L89.9706 74.4337L85.6157 62.1584H86.201L90.4915 74.2458Z" fill="#27AAE1"/>
<path d="M89.9705 74.4337L89.4496 74.6163L85.0303 62.1584H85.6156L89.9705 74.4337Z" fill="#27AAE1"/>
<path d="M89.4495 74.6163L88.9286 74.7989L84.4448 62.1584H85.0301L89.4495 74.6163Z" fill="#27AAE1"/>
<path d="M88.9289 74.7989L88.4081 74.9868L83.8599 62.1584H84.4452L88.9289 74.7989Z" fill="#27AAE1"/>
<path d="M88.4079 74.9868L87.8924 75.1694L83.2744 62.1584H83.8597L88.4079 74.9868Z" fill="#27AAE1"/>
<path d="M87.8928 75.1694L87.3719 75.3519L82.6895 62.1584H83.2748L87.8928 75.1694Z" fill="#27AAE1"/>
<path d="M87.3713 75.3519L86.8504 75.5399L82.1035 62.1584H82.6888L87.3713 75.3519Z" fill="#27AAE1"/>
<path d="M86.8508 75.5399L86.3299 75.7225L81.5186 62.1584H82.1039L86.8508 75.5399Z" fill="#27AAE1"/>
<path d="M86.3297 75.7225L85.8089 75.9104L80.9277 62.1584H81.5184L86.3297 75.7225Z" fill="#27AAE1"/>
<path d="M85.8087 75.9104L85.2879 76.093L80.3423 62.1584H80.9276L85.8087 75.9104Z" fill="#27AAE1"/>
<path d="M85.2882 76.093L84.7673 76.2755L79.7573 62.1584H80.3426L85.2882 76.093Z" fill="#27AAE1"/>
<path d="M84.7672 76.2755L84.2463 76.4635L79.1719 62.1584H79.7572L84.7672 76.2755Z" fill="#27AAE1"/>
<path d="M84.2467 76.4635L83.7312 76.6461L78.5869 62.1584H79.1722L84.2467 76.4635Z" fill="#27AAE1"/>
<path d="M83.731 76.6461L83.2102 76.8286L78.0015 62.1584H78.5868L83.731 76.6461Z" fill="#27AAE1"/>
<path d="M83.21 76.8286L82.6891 77.0166L77.416 62.1584H78.0013L83.21 76.8286Z" fill="#27AAE1"/>
<path d="M82.689 77.0166L82.5655 77.0595H82.1198L76.8306 62.1584H77.4159L82.689 77.0166Z" fill="#27AAE1"/>
<path d="M81.529 77.0595L76.2451 62.1584H76.8304L82.1197 77.0595H81.529Z" fill="#27AAE1"/>
<path d="M80.944 77.0595L75.6816 62.2175L75.8374 62.1584H76.2455L81.5293 77.0595H80.944Z" fill="#27AAE1"/>
<path d="M80.3586 77.0595L75.1606 62.4L75.6815 62.2175L80.9439 77.0595H80.3586Z" fill="#27AAE1"/>
<path d="M79.7736 77.0595L74.6401 62.5826L75.161 62.4L80.359 77.0595H79.7736Z" fill="#27AAE1"/>
<path d="M79.1877 77.0595L74.1187 62.7705L74.6395 62.5826L79.773 77.0595H79.1877Z" fill="#27AAE1"/>
<path d="M78.6028 77.0596L73.5981 62.9531L74.119 62.7706L79.1881 77.0596H78.6028Z" fill="#27AAE1"/>
<path d="M78.0173 77.0595L73.0771 63.141L73.598 62.9531L78.6027 77.0595H78.0173Z" fill="#27AAE1"/>
<path d="M77.4319 77.0595L72.5562 63.3236L73.077 63.1411L78.0172 77.0595H77.4319Z" fill="#27AAE1"/>
<path d="M76.8465 77.0595L72.0352 63.5062L72.556 63.3236L77.4318 77.0595H76.8465Z" fill="#27AAE1"/>
<path d="M76.2615 77.0596L71.5146 63.6942L72.0355 63.5062L76.8468 77.0596H76.2615Z" fill="#27AAE1"/>
<path d="M75.6761 77.0595L70.999 63.8767L71.5145 63.6942L76.2614 77.0595H75.6761Z" fill="#27AAE1"/>
<path d="M75.0912 77.0595L70.4785 64.0593L70.9994 63.8767L75.6765 77.0595H75.0912Z" fill="#27AAE1"/>
<path d="M74.5057 77.0596L69.9575 64.2473L70.4784 64.0593L75.091 77.0596H74.5057Z" fill="#27AAE1"/>
<path d="M73.9149 77.0596L69.4365 64.4298L69.9574 64.2473L74.5056 77.0596H73.9149Z" fill="#27AAE1"/>
<path d="M73.3295 77.0595L68.9155 64.6177L69.4364 64.4297L73.9148 77.0595H73.3295Z" fill="#27AAE1"/>
<path d="M72.7445 77.0596L68.395 64.8004L68.9159 64.6178L73.3298 77.0596H72.7445Z" fill="#27AAE1"/>
<path d="M72.1586 77.0595L67.8735 64.9829L68.3944 64.8003L72.7439 77.0595H72.1586Z" fill="#27AAE1"/>
<path d="M71.5737 77.0595L67.353 65.1708L67.8739 64.9828L72.159 77.0595H71.5737Z" fill="#27AAE1"/>
<path d="M70.9882 77.0595L66.8374 65.3534L67.3529 65.1708L71.5735 77.0595H70.9882Z" fill="#27AAE1"/>
<path d="M70.4033 77.0595L66.3169 65.536L66.8378 65.3534L70.9886 77.0595H70.4033Z" fill="#27AAE1"/>
<path d="M69.8179 77.0595L65.7959 65.7239L66.3168 65.5359L70.4032 77.0595H69.8179Z" fill="#27AAE1"/>
<path d="M69.2324 77.0595L65.2749 65.9065L65.7958 65.7239L69.8177 77.0595H69.2324Z" fill="#27AAE1"/>
<path d="M68.647 77.0595L64.7539 66.0944L65.2748 65.9065L69.2323 77.0595H68.647Z" fill="#27AAE1"/>
<path d="M68.0621 77.0595L64.2334 66.277L64.7543 66.0944L68.6474 77.0595H68.0621Z" fill="#27AAE1"/>
<path d="M67.4766 77.0596L63.7124 66.4596L64.2333 66.277L68.0619 77.0596H67.4766Z" fill="#27AAE1"/>
<path d="M66.8912 77.0595L63.1914 66.6475L63.7123 66.4596L67.4765 77.0595H66.8912Z" fill="#27AAE1"/>
<path d="M66.3004 77.0595L62.6758 66.83L63.1913 66.6475L66.8911 77.0595H66.3004Z" fill="#27AAE1"/>
<path d="M65.7154 77.0596L62.1553 67.0127L62.6761 66.8301L66.3007 77.0596H65.7154Z" fill="#27AAE1"/>
<path d="M65.13 77.0595L61.6343 67.2006L62.1551 67.0126L65.7153 77.0595H65.13Z" fill="#27AAE1"/>
<path d="M64.5447 77.0595L61.4517 68.3336V67.2651L61.6342 67.2006L65.13 77.0595H64.5447Z" fill="#27AAE1"/>
<path d="M63.9593 77.0596L61.4517 69.9822V68.3337L64.5447 77.0596H63.9593Z" fill="#27AAE1"/>
<path d="M63.374 77.0595L61.4517 71.6307V69.9822L63.9593 77.0595H63.374Z" fill="#27AAE1"/>
<path d="M62.7887 77.0595L61.4517 73.2846V71.6307L63.374 77.0595H62.7887Z" fill="#27AAE1"/>
<path d="M62.2034 77.0595L61.4517 74.9331V73.2845L62.7887 77.0595H62.2034Z" fill="#27AAE1"/>
<path d="M61.6181 77.0595L61.4517 76.5869V74.933L62.2034 77.0595H61.6181Z" fill="#27AAE1"/>
<path d="M61.4517 76.587L61.6181 77.0595H61.4517V76.587Z" fill="#27AAE1"/>
<g opacity="0.4">
<path opacity="0.4" d="M83.946 63.0444C81.0141 63.0766 77.7869 63.4793 74.6241 64.2794C73.2924 64.6177 72.0466 65.0043 70.9136 65.4232L78.2057 75.9426C80.0368 75.7439 81.9216 75.411 83.7796 74.9438C86.4054 74.2833 88.6768 73.4295 90.4811 72.4737L83.946 63.0444Z" fill="white"/>
</g>
<path d="M63.9862 67.1093H63.3311V84.0671H63.9862V67.1093Z" fill="#F08521"/>
<path d="M64.6414 67.1093H63.9863V84.0671H64.6414V67.1093Z" fill="#F18621"/>
<path d="M65.3016 67.1093H64.6465V84.0671H65.3016V67.1093Z" fill="#F18721"/>
<path d="M65.9569 67.1093H65.3018V84.0671H65.9569V67.1093Z" fill="#F18721"/>
<path d="M66.6175 67.1093H65.9624V84.0671H66.6175V67.1093Z" fill="#F18821"/>
<path d="M67.2723 67.1093H66.6172V84.0671H67.2723V67.1093Z" fill="#F18921"/>
<path d="M67.9329 67.1093H67.2778V84.0671H67.9329V67.1093Z" fill="#F18921"/>
<path d="M68.5882 67.1093H67.9331V84.0671H68.5882V67.1093Z" fill="#F28A21"/>
<path d="M69.243 67.1093H68.5879V84.0671H69.243V67.1093Z" fill="#F28B20"/>
<path d="M69.9036 67.1093H69.2485V84.0671H69.9036V67.1093Z" fill="#F28C20"/>
<path d="M70.5589 67.1093H69.9038V84.0671H70.5589V67.1093Z" fill="#F28C20"/>
<path d="M71.2191 67.1093H70.564V84.0671H71.2191V67.1093Z" fill="#F28D20"/>
<path d="M71.8744 67.1093H71.2192V84.0671H71.8744V67.1093Z" fill="#F38E20"/>
<path d="M72.5345 67.1093H71.8794V84.0671H72.5345V67.1093Z" fill="#F38E20"/>
<path d="M73.1898 67.1093H72.5347V84.0671H73.1898V67.1093Z" fill="#F38F20"/>
<path d="M73.8504 67.1093H73.1953V84.0671H73.8504V67.1093Z" fill="#F39020"/>
<path d="M74.5052 67.1093H73.8501V84.0671H74.5052V67.1093Z" fill="#F39120"/>
<path d="M75.1659 67.1093H74.5107V84.0671H75.1659V67.1093Z" fill="#F3911F"/>
<path d="M75.8211 67.1093H75.166V84.0671H75.8211V67.1093Z" fill="#F4921F"/>
<path d="M76.4813 67.1093H75.8262V84.0671H76.4813V67.1093Z" fill="#F4931F"/>
<path d="M77.1366 67.1093H76.4814V84.0671H77.1366V67.1093Z" fill="#F4931F"/>
<path d="M77.7972 67.1093H77.1421V84.0671H77.7972V67.1093Z" fill="#F4941F"/>
<path d="M78.452 67.1093H77.7969V84.0671H78.452V67.1093Z" fill="#F4951F"/>
<path d="M79.1126 67.1093H78.4575V84.0671H79.1126V67.1093Z" fill="#F5961F"/>
<path d="M79.7679 67.1093H79.1128V84.0671H79.7679V67.1093Z" fill="#F5961E"/>
<path d="M80.4286 67.1093H79.7734V84.0671H80.4286V67.1093Z" fill="#F5971E"/>
<path d="M81.0838 67.1093H80.4287V84.0671H81.0838V67.1093Z" fill="#F5981E"/>
<path d="M81.744 67.1093H81.0889V84.0671H81.744V67.1093Z" fill="#F5991E"/>
<path d="M82.3993 67.1093H81.7441V84.0671H82.3993V67.1093Z" fill="#F6991E"/>
<path d="M83.0594 67.1093H82.4043V84.0671H83.0594V67.1093Z" fill="#F69A1E"/>
<path d="M83.7147 67.1093H83.0596V84.0671H83.7147V67.1093Z" fill="#F69B1D"/>
<path d="M84.3753 67.1093H83.7202V84.0671H84.3753V67.1093Z" fill="#F69C1D"/>
<path d="M85.0301 67.1093H84.375V84.0671H85.0301V67.1093Z" fill="#F79C1D"/>
<path d="M85.6908 67.1093H85.0356V84.0671H85.6908V67.1093Z" fill="#F79D1D"/>
<path d="M86.346 67.1093H85.6909V84.0671H86.346V67.1093Z" fill="#F79E1D"/>
<path d="M87.0062 67.1093H86.3511V84.0671H87.0062V67.1093Z" fill="#F79F1C"/>
<path d="M87.6615 67.1093H87.0063V84.0671H87.6615V67.1093Z" fill="#F79F1C"/>
<path d="M88.3167 67.1093H87.6616V84.0671H88.3167V67.1093Z" fill="#F8A01C"/>
<path d="M88.9769 67.1093H88.3218V84.0671H88.9769V67.1093Z" fill="#F8A11C"/>
<path d="M89.6322 67.1093H88.9771V84.0671H89.6322V67.1093Z" fill="#F8A21C"/>
<path d="M90.2928 67.1093H89.6377V84.0671H90.2928V67.1093Z" fill="#F8A21B"/>
<path d="M90.9476 67.1093H90.2925V84.0671H90.9476V67.1093Z" fill="#F9A31B"/>
<path d="M91.6082 67.1093H90.9531V84.0671H91.6082V67.1093Z" fill="#F9A41B"/>
<path d="M92.2635 67.1093H91.6084V84.0671H92.2635V67.1093Z" fill="#F9A51B"/>
<path d="M92.9237 67.1093H92.2686V84.0671H92.9237V67.1093Z" fill="#F9A51A"/>
<path d="M93.5789 67.1093H92.9238V84.0671H93.5789V67.1093Z" fill="#FAA61A"/>
<path d="M94.2396 67.1093H93.5845V84.0671H94.2396V67.1093Z" fill="#FAA71A"/>
<path d="M94.8944 67.1093H94.2393V84.0671H94.8944V67.1093Z" fill="#FAA81A"/>
<path d="M95.555 67.1093H94.8999V84.0671H95.555V67.1093Z" fill="#FAA919"/>
<path d="M96.2103 67.1093H95.5552V84.0671H96.2103V67.1093Z" fill="#FBA919"/>
<path d="M96.6234 67.1093H96.2153V84.0671H96.6234V67.1093Z" fill="#FBA919"/>
<g opacity="0.6">
<path opacity="0.6" d="M83.7846 75.368C90.8458 73.5906 95.335 70.4117 95.0987 67.6946C94.8624 70.3097 90.4807 73.2577 83.7846 74.9438C75.3755 77.0595 66.51 76.3883 63.9808 73.4456C63.6157 73.0214 63.4062 72.5757 63.3311 72.1139L63.4814 73.0751C63.5942 73.349 63.7553 73.6175 63.9808 73.8698C66.5046 76.8125 75.3701 77.4837 83.7846 75.368Z" fill="white"/>
</g>
<path d="M75.7621 65.6058C82.077 64.0163 88.7355 64.5211 90.6364 66.7335C92.5373 68.9458 88.9557 72.0281 82.6408 73.6175C76.326 75.207 69.6674 74.7022 67.7719 72.4952C65.871 70.2775 69.4526 67.1953 75.7621 65.6058Z" fill="#41C2F1"/>
<path d="M75.7784 66.5563C82.0932 64.9668 88.7518 65.4716 90.6527 67.6839C90.8675 67.9363 91.0125 68.1994 91.0876 68.4733C91.238 67.8665 91.0984 67.2758 90.6366 66.7335C88.7357 64.5211 82.0771 64.0163 75.7623 65.6058C70.167 67.0127 66.7249 69.5956 67.3317 71.7005C67.7935 69.8103 71.0046 67.7591 75.7784 66.5563Z" fill="#156093"/>
<path d="M52.656 70.9755C49.3535 69.1391 51.625 63.6028 56.2054 62.0456L56.3396 59.205L50.943 60.6118L51.0289 58.7808C51.1041 57.2128 49.9442 56.257 48.4407 56.6489C46.9425 57.0409 45.6645 58.6358 45.5893 60.2037L45.5034 62.0348L40.1658 63.431L39.4463 78.3966L55.6201 74.1706L55.7543 71.3836C54.5408 71.6092 53.5205 71.4534 52.656 70.9755Z" fill="#00A79D"/>
<path d="M80.7079 84.1638C75.9664 85.184 71.2732 85.125 67.4928 84.0027C63.5085 82.8213 60.9793 80.5929 60.3618 77.7361C59.7442 74.8794 61.1404 71.8079 64.2817 69.0908C67.2673 66.5133 71.5202 64.5318 76.2617 63.5116C81.0032 62.4913 85.6964 62.5504 89.4767 63.6727C93.4611 64.854 95.9903 67.0825 96.6078 69.9392C97.2253 72.7959 95.8292 75.8675 92.6879 78.5846C89.7023 81.1621 85.4494 83.1435 80.7079 84.1638Z" fill="#FAB817"/>
<path d="M67.9654 85.2753C67.9601 85.2431 67.9332 85.2217 67.901 85.2109C67.4285 85.1035 66.9613 84.9854 66.5102 84.8511C64.5932 84.2819 62.9501 83.4926 61.6076 82.5045C61.5432 82.4562 61.4412 82.5153 61.4573 82.5905L61.715 83.7879C62.3325 86.6446 64.8617 88.8731 68.8461 90.0545C68.9159 90.0759 68.9803 90.0169 68.9696 89.9524L67.9654 85.2753Z" fill="#156093"/>
<path d="M87.1729 88.6744C88.8644 88.0031 90.427 87.203 91.8231 86.2956C91.8553 86.2741 91.8714 86.2419 91.8607 86.2096L90.819 81.3768C90.8082 81.3178 90.7384 81.2963 90.6793 81.3285C89.2564 82.1769 87.6937 82.9287 86.0291 83.5623C85.9862 83.5784 85.9647 83.6214 85.97 83.659L87.0386 88.626C87.0601 88.669 87.1192 88.6958 87.1729 88.6744Z" fill="#156093"/>
<path d="M71.5471 90.6612C73.1902 90.9136 74.9515 90.9995 76.7665 90.9189C76.8256 90.9189 76.8685 90.8652 76.8578 90.8169L75.7892 85.8499C75.7784 85.8123 75.7409 85.7854 75.6979 85.7854C73.9259 85.8928 72.1914 85.8498 70.5429 85.6619C70.4785 85.6565 70.4248 85.7049 70.4409 85.7639L71.4826 90.5967C71.4826 90.629 71.5148 90.6504 71.5471 90.6612Z" fill="#156093"/>
<path d="M83.7793 84.4215C83.7685 84.3732 83.7148 84.3463 83.6665 84.3624C82.7805 84.6255 81.8784 84.8618 80.9548 85.0551C80.0312 85.2538 79.1129 85.4149 78.1947 85.5384C78.141 85.5438 78.1034 85.5921 78.1141 85.6404L79.1881 90.6289C79.1988 90.6719 79.2418 90.6988 79.2848 90.6934C80.203 90.5752 81.132 90.4195 82.0609 90.2208C82.9899 90.0222 83.8974 89.7859 84.7834 89.512C84.8264 89.4959 84.8586 89.453 84.8478 89.41L83.7793 84.4215Z" fill="#156093"/>
<path d="M94.0304 78.9336C93.676 79.2397 93.3001 79.5404 92.9134 79.8357C92.8866 79.8572 92.8759 79.8894 92.8812 79.9216L93.8907 84.6041C93.9069 84.6685 93.9874 84.69 94.0411 84.647C97.1878 81.9299 98.5786 78.8638 97.961 76.0017L97.7033 74.8042C97.6872 74.729 97.5744 74.7129 97.5315 74.7881C96.7206 76.2326 95.5446 77.6287 94.0304 78.9336Z" fill="#156093"/>
<path d="M70.5318 99.2153C66.1447 98.1682 62.2248 96.2351 59.5023 93.7757C56.6348 91.1821 55.3998 88.2985 56.0334 85.6512C56.667 83.0039 59.0673 80.9849 62.7993 79.9646C66.338 78.9981 70.709 79.041 75.0961 80.0881C79.4832 81.1352 83.4032 83.0684 86.1257 85.5277C88.9931 88.1213 90.2282 91.0049 89.5946 93.6522C88.9609 96.2995 86.5606 98.3185 82.8286 99.3388C79.2899 100.305 74.9243 100.262 70.5318 99.2153Z" fill="#FAB817"/>
<path d="M59.3843 95.0322C59.3897 95.0053 59.379 94.9731 59.3575 94.9516C59.0031 94.6724 58.6594 94.3878 58.3372 94.0925C56.9572 92.8467 55.894 91.5257 55.1637 90.1564C55.1261 90.0866 55.0241 90.0974 55.0026 90.1672L54.7395 91.2787C54.1058 93.926 55.3409 96.8096 58.2083 99.4032C58.2567 99.4461 58.3372 99.4247 58.3533 99.3656L59.3843 95.0322Z" fill="#156093"/>
<path d="M74.1514 105.6C75.8375 105.713 77.4753 105.67 79.011 105.471C79.0432 105.466 79.0701 105.444 79.0808 105.412L80.1494 100.934C80.1601 100.88 80.1118 100.832 80.0528 100.837C78.517 100.977 76.9007 100.982 75.2522 100.842C75.2092 100.837 75.1716 100.864 75.1662 100.901L74.0708 105.498C74.0547 105.546 74.0977 105.595 74.1514 105.6Z" fill="#156093"/>
<path d="M60.233 100.993C61.511 101.868 62.9554 102.641 64.5127 103.302C64.561 103.323 64.6201 103.296 64.6308 103.248L65.7262 98.6514C65.737 98.6138 65.7155 98.5762 65.6725 98.5601C64.1422 97.9372 62.7031 97.2069 61.3928 96.3853C61.3445 96.3531 61.2747 96.3746 61.264 96.4283L60.1954 100.907C60.19 100.939 60.2061 100.971 60.233 100.993Z" fill="#156093"/>
<path d="M73.0023 100.665C73.013 100.622 72.9808 100.574 72.9325 100.568C72.0841 100.434 71.2303 100.268 70.3765 100.064C69.5227 99.8597 68.685 99.6234 67.8688 99.3603C67.8204 99.3441 67.7721 99.371 67.7614 99.414L66.6606 104.032C66.6498 104.07 66.6767 104.113 66.7196 104.123C67.5358 104.392 68.3789 104.633 69.2381 104.837C70.0972 105.041 70.9564 105.208 71.8102 105.337C71.8531 105.342 71.8961 105.321 71.9015 105.278L73.0023 100.665Z" fill="#156093"/>
<path d="M83.8169 100.171C83.3926 100.289 82.9577 100.386 82.5174 100.477C82.4852 100.482 82.4637 100.504 82.4583 100.536L81.4219 104.875C81.4058 104.934 81.4703 104.988 81.5347 104.972C85.2667 103.951 87.667 101.932 88.3006 99.285L88.5637 98.1735C88.5799 98.1037 88.4886 98.0446 88.4295 98.0929C87.1569 98.9843 85.6157 99.6824 83.8169 100.171Z" fill="#156093"/>
<path d="M112.969 92.9595C112.969 92.9595 106.365 98.2111 104.49 98.6031C104.49 98.6031 97.354 101.884 86.8024 91.6331C86.8024 91.6331 75.789 80.7003 75.7997 70.1218C75.7997 70.1218 74.9352 62.3893 80.6755 59.307L85.7177 55.6932L102.724 66.32L112.905 82.9233L112.969 92.9595Z" fill="#F18721"/>
<path d="M82.2057 66.9805C81.5291 61.8523 82.7749 57.8411 85.7176 55.6932C88.6548 53.5453 92.854 53.5721 97.5365 55.7684C101.983 57.8572 106.391 61.6859 109.957 66.5616C113.522 71.4374 115.837 76.8018 116.476 81.6668C117.152 86.795 115.906 90.8062 112.964 92.9541C110.027 95.102 105.827 95.0752 101.145 92.8789C96.6988 90.7901 92.2902 86.9614 88.7246 82.0857C85.1645 77.2153 82.8501 71.8509 82.2057 66.9805Z" fill="#FAB817"/>
<path d="M100.307 78.8638L95.6247 65.8743L91.1463 65.2514L90.2979 63.9197L103.712 65.7776L104.56 67.1093L100.082 66.4864L104.764 79.4759L100.307 78.8638Z" fill="#FDDB44"/>
<path d="M40.5146 82.3111C40.5146 82.3111 42.7861 87.5306 43.7795 88.3575C43.7795 88.3575 46.9906 92.5674 56.522 89.8074C56.522 89.8074 66.542 86.7788 69.8874 80.48C69.8874 80.48 72.8515 76.1466 70.4082 72.4952L68.5503 68.7471L55.056 69.6921L43.7312 76.3561L40.5146 82.3111Z" fill="#F18721"/>
<path d="M58.3962 83.5086C54.7286 85.2807 50.8892 86.172 47.5814 86.0056C44.0965 85.8337 41.5888 84.5182 40.5148 82.3112C39.4462 80.0988 39.9725 77.3173 41.9969 74.4767C43.9192 71.781 46.9961 69.3163 50.6637 67.5443C54.3313 65.7722 58.1707 64.8809 61.4784 65.0473C64.9634 65.2192 67.4711 66.5348 68.5451 68.7417C69.6137 70.9541 69.0874 73.7356 67.063 76.5762C65.1353 79.2719 62.0584 81.7366 58.3962 83.5086Z" fill="#FAB817"/>
<path d="M48.9023 78.8369L54.299 72.2052L51.2489 72.2696L51.9202 71.4427L61.0488 71.244L60.3776 72.071L57.3275 72.1354L51.9309 78.7725L48.9023 78.8369Z" fill="#FDDB44"/>
<path d="M9.99309 83.4281L3.68896 80.174V72.3556L42.6467 94.6509V102.469L16.9631 87.289L17.0275 153.842L10.1649 149.852L9.99309 83.4281Z" fill="url(#paint2_linear_1121_14076)"/>
<path d="M62.3593 104.435C63.6749 105.16 64.8025 106.217 65.7422 107.603C66.7142 109.031 67.1974 110.363 67.1974 111.609V172.948C67.1974 174.194 66.7142 174.983 65.7422 175.321C64.7971 175.676 63.6695 175.488 62.3593 174.757L52.7366 169.425C51.421 168.7 50.288 167.632 49.3322 166.225C48.3764 164.818 47.8984 163.497 47.8984 162.251V100.912C47.8984 99.6663 48.3764 98.8662 49.3322 98.5065C50.288 98.1735 51.4264 98.3722 52.7366 99.1025L62.3593 104.435ZM54.4442 109.021V162.702L60.6409 166.134V112.452L54.4442 109.021Z" fill="url(#paint3_linear_1121_14076)"/>
<path d="M42.4965 126.118V113.778C42.4965 112.532 42.0132 111.201 41.0412 109.772C40.0962 108.387 38.9685 107.334 37.6583 106.604L23.9653 99.0166V151.512L30.5111 155.136V127.697L33.5987 129.404C34.227 129.753 34.7747 130.263 35.2419 130.929C35.709 131.611 35.9399 132.25 35.9399 132.852V149.922L42.5072 153.557V136.487C42.5072 134.301 41.6641 132.1 39.9834 129.882C41.6534 129.533 42.4965 128.277 42.4965 126.118ZM35.7037 122.966L33.3571 121.924L32.9705 121.752L30.6239 120.705L32.267 117.268C31.2038 116.42 30.4305 115.067 30.4305 113.864C30.4305 112.344 31.6549 111.657 33.1638 112.328C34.6727 113 35.897 114.777 35.897 116.297C35.897 117.499 35.1291 118.165 34.0605 118.069L35.7037 122.966Z" fill="url(#paint4_linear_1121_14076)"/>
<path d="M104.866 45.845C103.567 45.3027 102.24 44.712 100.93 44.0622C98.9917 45.6732 97.8856 46.339 95.3188 47.762C94.9859 44.7657 94.8194 43.6971 95.4584 40.8833C93.869 39.7771 92.403 38.5475 91.1465 37.1674C92.983 36.6895 94.8785 36.4425 96.7794 36.4157C96.7901 36.3888 96.8009 36.362 96.8116 36.3351C97.268 35.1001 97.7889 33.8972 98.3903 32.7266C99.7811 33.9456 100.962 35.3524 101.929 36.8936C103.132 37.1406 104.324 37.4789 105.478 37.9085C104.963 38.8482 104.378 39.761 103.749 40.6524C104.179 41.8391 104.496 43.0742 104.689 44.3361C104.764 44.8301 104.823 45.3402 104.866 45.845Z" fill="#FBB040"/>
<path d="M97.2573 32.7588L105.607 42.2311L105.296 32.5065L97.2573 32.7588Z" fill="#FBB040"/>
<path d="M97.0049 32.7696L105.618 42.5372L105.607 42.2311L97.2573 32.7589L97.0049 32.7696Z" fill="#FBB040"/>
<path d="M96.7578 32.775L105.629 42.8379L105.618 42.5372L97.0048 32.7696L96.7578 32.775Z" fill="#FBB040"/>
<path d="M96.5054 32.7857L105.639 43.144L105.629 42.8379L96.7578 32.775L96.5054 32.7857Z" fill="#FBB040"/>
<path d="M96.2529 32.7911L105.645 43.4447L105.639 43.144L96.5053 32.7857L96.2529 32.7911Z" fill="#FBB040"/>
<path d="M96.0063 32.8018L105.656 43.7508L105.645 43.4447L96.2534 32.7911L96.0063 32.8018Z" fill="#FBB040"/>
<path d="M95.7539 32.8071L105.667 44.0515L105.656 43.7507L96.0063 32.8018L95.7539 32.8071Z" fill="#FBB040"/>
<path d="M95.5015 32.8179L105.677 44.3575L105.666 44.0515L95.7538 32.8071L95.5015 32.8179Z" fill="#FBB040"/>
<path d="M95.249 32.8232L105.688 44.6582L105.677 44.3575L95.5014 32.8179L95.249 32.8232Z" fill="#FBB040"/>
<path d="M95.2382 32.8232L95.0986 32.9467L105.693 44.9643L105.688 44.6582L95.249 32.8232H95.2382Z" fill="#FBB040"/>
<path d="M95.0986 32.9468L94.9536 33.0757L105.704 45.2704L105.693 44.9644L95.0986 32.9468Z" fill="#FBB040"/>
<path d="M94.9536 33.0757L94.8086 33.2046L105.715 45.5712L105.704 45.2705L94.9536 33.0757Z" fill="#FBB040"/>
<path d="M94.8086 33.2045L94.6636 33.328L105.698 45.8504L105.725 45.8289L105.715 45.5711L94.8086 33.2045Z" fill="#FBB040"/>
<path d="M94.6621 33.3259L94.5171 33.4537L105.552 45.974L105.697 45.8462L94.6621 33.3259Z" fill="#FBB040"/>
<path d="M94.5181 33.4624L94.373 33.5902L105.41 46.1088L105.555 45.981L94.5181 33.4624Z" fill="#FBB040"/>
<path d="M94.373 33.5884L94.228 33.7162L105.265 46.2349L105.41 46.107L94.373 33.5884Z" fill="#FBB040"/>
<path d="M94.2305 33.7097L94.0854 33.8376L105.124 46.3562L105.269 46.2284L94.2305 33.7097Z" fill="#FBB040"/>
<path d="M94.0791 33.8371L93.9341 33.9649L104.971 46.4835L105.116 46.3557L94.0791 33.8371Z" fill="#FBB040"/>
<path d="M93.937 33.9724L93.792 34.1003L104.829 46.6189L104.974 46.4911L93.937 33.9724Z" fill="#FBB040"/>
<path d="M93.7871 34.0976L93.6421 34.2255L104.682 46.7408L104.827 46.6129L93.7871 34.0976Z" fill="#FBB040"/>
<path d="M93.6524 34.2304L93.5073 34.3582L104.541 46.8801L104.686 46.7523L93.6524 34.2304Z" fill="#FBB040"/>
<path d="M93.5029 34.3501L93.3579 34.4779L104.393 46.9982L104.538 46.8704L93.5029 34.3501Z" fill="#FBB040"/>
<path d="M93.3588 34.478L93.2139 34.6059L104.254 47.1229L104.399 46.995L93.3588 34.478Z" fill="#FBB040"/>
<path d="M93.2143 34.6066L93.0693 34.7344L104.109 47.2514L104.254 47.1235L93.2143 34.6066Z" fill="#FBB040"/>
<path d="M93.0659 34.7317L92.9209 34.8595L103.956 47.3798L104.101 47.252L93.0659 34.7317Z" fill="#FBB040"/>
<path d="M92.9238 34.8638L92.7788 34.9926L103.792 47.4935L103.841 47.4881L103.959 47.3861L92.9238 34.8638Z" fill="#FBB040"/>
<path d="M92.7788 34.9927L92.6338 35.1216L103.545 47.4989L103.792 47.4935L92.7788 34.9927Z" fill="#FBB040"/>
<path d="M92.6337 35.1216L92.4888 35.2505L103.293 47.5097L103.545 47.4989L92.6337 35.1216Z" fill="#FBB040"/>
<path d="M92.4887 35.2504L92.3384 35.3793L103.04 47.515L103.293 47.5096L92.4887 35.2504Z" fill="#FBB040"/>
<path d="M92.3383 35.3793L92.1934 35.5081L102.788 47.5204L103.04 47.515L92.3383 35.3793Z" fill="#FBB040"/>
<path d="M92.1933 35.5081L92.0483 35.6316L102.541 47.5311L102.788 47.5203L92.1933 35.5081Z" fill="#FBB040"/>
<path d="M92.0488 35.6317L91.9038 35.7606L102.289 47.5365L102.541 47.5312L92.0488 35.6317Z" fill="#FBB040"/>
<path d="M91.9038 35.7606L91.7588 35.8894L102.037 47.5472L102.289 47.5365L91.9038 35.7606Z" fill="#FBB040"/>
<path d="M91.7588 35.8894L91.6138 36.0183L101.79 47.5526L102.037 47.5472L91.7588 35.8894Z" fill="#FBB040"/>
<path d="M91.6137 36.0182L91.4688 36.1471L101.537 47.5633L101.789 47.5525L91.6137 36.0182Z" fill="#FBB040"/>
<path d="M91.4687 36.1472L91.3237 36.2761L101.285 47.5687L101.537 47.5634L91.4687 36.1472Z" fill="#FBB040"/>
<path d="M91.3237 36.2761L91.1787 36.3996L101.032 47.5795L101.285 47.5687L91.3237 36.2761Z" fill="#FBB040"/>
<path d="M91.1787 36.3995L91.125 36.4532L91.1304 36.6358L100.785 47.5848L101.032 47.5794L91.1787 36.3995Z" fill="#FBB040"/>
<path d="M91.1411 36.9419L100.533 47.5955L100.785 47.5848L91.1304 36.6358L91.1411 36.9419Z" fill="#FBB040"/>
<path d="M91.1465 37.2426L100.28 47.6009L100.533 47.5955L91.1411 36.9419L91.1465 37.2426Z" fill="#FBB040"/>
<path d="M91.1572 37.5487L100.028 47.6117L100.28 47.6009L91.1465 37.2426L91.1572 37.5487Z" fill="#FBB040"/>
<path d="M91.168 37.8548L99.7811 47.617L100.028 47.6117L91.1572 37.5487L91.168 37.8548Z" fill="#FBB040"/>
<path d="M91.1787 38.1555L99.5287 47.6278L99.7811 47.6171L91.168 37.8548L91.1787 38.1555Z" fill="#FBB040"/>
<path d="M91.1895 38.4615L99.2763 47.6331L99.5287 47.6278L91.1787 38.1555L91.1895 38.4615Z" fill="#FBB040"/>
<path d="M91.2002 38.7623L99.024 47.6439L99.2763 47.6331L91.1895 38.4615L91.2002 38.7623Z" fill="#FBB040"/>
<path d="M91.2056 39.0684L98.777 47.6493L99.024 47.644L91.2002 38.7623L91.2056 39.0684Z" fill="#FBB040"/>
<path d="M91.2163 39.369L98.5246 47.66L98.777 47.6492L91.2056 39.0683L91.2163 39.369Z" fill="#FBB040"/>
<path d="M91.2271 39.6752L98.2722 47.6654L98.5246 47.66L91.2163 39.3691L91.2271 39.6752Z" fill="#FBB040"/>
<path d="M91.2378 39.9758L98.0252 47.6761L98.2722 47.6653L91.2271 39.6751L91.2378 39.9758Z" fill="#FBB040"/>
<path d="M91.2485 40.2819L97.7728 47.6815L98.0252 47.6761L91.2378 39.9758L91.2485 40.2819Z" fill="#FBB040"/>
<path d="M91.2539 40.5826L97.5204 47.6922L97.7728 47.6814L91.2485 40.2819L91.2539 40.5826Z" fill="#FBB040"/>
<path d="M91.2646 40.8887L97.2681 47.6975L97.5204 47.6922L91.2539 40.5826L91.2646 40.8887Z" fill="#FBB040"/>
<path d="M91.2754 41.1948L97.021 47.7084L97.2681 47.6976L91.2646 40.8887L91.2754 41.1948Z" fill="#FBB040"/>
<path d="M91.2861 41.4955L96.7687 47.7137L97.0211 47.7083L91.2754 41.1948L91.2861 41.4955Z" fill="#FBB040"/>
<path d="M91.2969 41.8016L96.5163 47.7244L96.7687 47.7137L91.2861 41.4955L91.2969 41.8016Z" fill="#FBB040"/>
<path d="M91.3022 42.1022L96.2639 47.7298L96.5163 47.7244L91.2969 41.8015L91.3022 42.1022Z" fill="#FBB040"/>
<path d="M91.313 42.4084L96.0169 47.7406L96.2639 47.7298L91.3022 42.1023L91.313 42.4084Z" fill="#FBB040"/>
<path d="M91.3237 42.709L95.7645 47.7459L96.0169 47.7405L91.313 42.4083L91.3237 42.709Z" fill="#FBB040"/>
<path d="M91.3345 43.0151L95.5122 47.7566L95.7645 47.7459L91.3237 42.709L91.3345 43.0151Z" fill="#FBB040"/>
<path d="M91.3452 43.3158L95.2598 47.762L95.5122 47.7567L91.3345 43.0151L91.3452 43.3158Z" fill="#FBB040"/>
<path d="M91.3506 43.6219L95.0128 47.7727L95.2598 47.762L91.3452 43.3158L91.3506 43.6219Z" fill="#FBB040"/>
<path d="M91.3613 43.928L94.7604 47.7782L95.0128 47.7728L91.3506 43.6219L91.3613 43.928Z" fill="#FBB040"/>
<path d="M91.3721 44.2287L94.508 47.7889L94.7604 47.7781L91.3613 43.928L91.3721 44.2287Z" fill="#FBB040"/>
<path d="M91.3828 44.5348L94.261 47.7942L94.508 47.7889L91.3721 44.2287L91.3828 44.5348Z" fill="#FBB040"/>
<path d="M91.3936 44.8354L94.0086 47.8049L94.261 47.7942L91.3828 44.5347L91.3936 44.8354Z" fill="#FBB040"/>
<path d="M91.3989 45.1416L93.7563 47.8104L94.0086 47.805L91.3936 44.8355L91.3989 45.1416Z" fill="#FBB040"/>
<path d="M91.4097 45.4423L93.5039 47.8211L93.7563 47.8104L91.3989 45.1416L91.4097 45.4423Z" fill="#FBB040"/>
<path d="M91.4204 45.7483L93.2569 47.8264L93.5039 47.8211L91.4097 45.4423L91.4204 45.7483Z" fill="#FBB040"/>
<path d="M91.4312 46.0491L93.0045 47.8372L93.2569 47.8265L91.4204 45.7484L91.4312 46.0491Z" fill="#FBB040"/>
<path d="M91.4419 46.3551L92.7521 47.8425L93.0045 47.8371L91.4312 46.049L91.4419 46.3551Z" fill="#FBB040"/>
<path d="M91.4473 46.6558L92.4997 47.8533L92.7521 47.8425L91.4419 46.3551L91.4473 46.6558Z" fill="#FBB040"/>
<path d="M91.458 46.962L92.2527 47.8587L92.4997 47.8533L91.4473 46.6559L91.458 46.962Z" fill="#FBB040"/>
<path d="M91.4687 47.268L92.0004 47.8694L92.2527 47.8587L91.458 46.9619L91.4687 47.268Z" fill="#FBB040"/>
<path d="M91.4795 47.5687L91.748 47.8748L92.0004 47.8694L91.4688 47.268L91.4795 47.5687Z" fill="#FBB040"/>
<path d="M91.4902 47.8747L91.4956 47.8855L91.748 47.8747L91.4795 47.5687L91.4902 47.8747Z" fill="#FBB040"/>
<path d="M91.4946 47.8835L91.4902 47.8748V47.8835H91.4946Z" fill="#FBB040"/>
<path d="M55.4331 17.2295C56.2278 17.6376 57.0548 18.0403 57.9032 18.4108C57.9139 20.011 58.0428 20.8165 58.4026 22.6422C59.9921 21.579 60.5774 21.2246 61.6782 19.7694C62.8595 20.0862 64.057 20.2956 65.2383 20.3386C64.7175 19.2539 64.0677 18.2336 63.3052 17.2993C63.3159 17.2832 63.3213 17.2671 63.3321 17.251C63.7455 16.526 64.116 15.7796 64.4382 15.0118C63.2837 14.8346 62.1185 14.8346 60.9747 14.9957C60.3626 14.5124 59.7128 14.0721 59.0362 13.6908C58.7892 14.3244 58.5852 14.9795 58.4133 15.6508C57.6616 15.93 56.9366 16.279 56.2439 16.6979C55.9647 16.8643 55.6962 17.0415 55.4331 17.2295Z" fill="#EDAD2F"/>
<path d="M64.8784 15.5756L56.8828 15.393L61.721 11.5751L64.8784 15.5756Z" fill="#EDAD2F"/>
<path d="M64.9804 15.699L56.7324 15.5164L56.8828 15.3929L64.8784 15.5755L64.9804 15.699Z" fill="#EDAD2F"/>
<path d="M65.077 15.8279L56.5767 15.6346L56.7324 15.5165L64.9804 15.6991L65.077 15.8279Z" fill="#EDAD2F"/>
<path d="M65.1736 15.9514L56.4263 15.7527L56.5766 15.6346L65.077 15.8279L65.1736 15.9514Z" fill="#EDAD2F"/>
<path d="M65.2756 16.0749L56.2759 15.8709L56.4262 15.7527L65.1736 15.9514L65.2756 16.0749Z" fill="#EDAD2F"/>
<path d="M65.3723 16.1985L56.1255 15.989L56.2758 15.8709L65.2756 16.075L65.3723 16.1985Z" fill="#EDAD2F"/>
<path d="M65.4747 16.3273L55.9756 16.1125L56.1259 15.989L65.3727 16.1984L65.4747 16.3273Z" fill="#EDAD2F"/>
<path d="M65.5714 16.4508L55.8252 16.2306L55.9755 16.1125L65.4747 16.3273L65.5714 16.4508Z" fill="#EDAD2F"/>
<path d="M65.668 16.5744L55.6748 16.3488L55.8252 16.2307L65.5713 16.4509L65.668 16.5744Z" fill="#EDAD2F"/>
<path d="M65.7592 16.6925V16.6979L55.519 16.467L55.6748 16.3488L65.6679 16.5743L65.7592 16.6925Z" fill="#EDAD2F"/>
<path d="M65.7592 16.6978V16.8213L55.3687 16.5904L55.519 16.4669L65.7592 16.6978Z" fill="#EDAD2F"/>
<path d="M65.7591 16.8213L65.7538 16.9448L55.2183 16.7085L55.3686 16.5904L65.7591 16.8213Z" fill="#EDAD2F"/>
<path d="M65.7537 16.9449V17.0684L55.0679 16.8268L55.2182 16.7086L65.7537 16.9449Z" fill="#EDAD2F"/>
<path d="M65.7537 17.0684L65.7484 17.1919L55.0034 16.9502V16.8804L55.0679 16.8267L65.7537 17.0684Z" fill="#EDAD2F"/>
<path d="M55.0013 16.9433L54.9985 17.0668L65.7467 17.3054L65.7494 17.1819L55.0013 16.9433Z" fill="#EDAD2F"/>
<path d="M54.9984 17.0714L54.9956 17.1948L65.7427 17.441L65.7455 17.3175L54.9984 17.0714Z" fill="#EDAD2F"/>
<path d="M54.9925 17.1877L54.9897 17.3112L65.7379 17.5509L65.7407 17.4274L54.9925 17.1877Z" fill="#EDAD2F"/>
<path d="M54.9916 17.3136L54.9888 17.4371L65.7358 17.6865L65.7387 17.563L54.9916 17.3136Z" fill="#EDAD2F"/>
<path d="M54.9886 17.4328L54.9858 17.5563L65.734 17.796L65.7368 17.6725L54.9886 17.4328Z" fill="#EDAD2F"/>
<path d="M54.9901 17.5621L54.9873 17.6855L65.7344 17.9307L65.7372 17.8072L54.9901 17.5621Z" fill="#EDAD2F"/>
<path d="M54.9847 17.6838L54.9819 17.8073L65.7301 18.0459L65.7328 17.9224L54.9847 17.6838Z" fill="#EDAD2F"/>
<path d="M54.9818 17.8066L54.979 17.9301L65.7261 18.1762L65.7289 18.0528L54.9818 17.8066Z" fill="#EDAD2F"/>
<path d="M54.9784 17.9321L54.9756 18.0556L65.7227 18.3007L65.7255 18.1772L54.9784 17.9321Z" fill="#EDAD2F"/>
<path d="M54.9744 18.0483L54.9717 18.1718L65.7198 18.4115L65.7226 18.288L54.9744 18.0483Z" fill="#EDAD2F"/>
<path d="M65.7215 18.4161L65.7161 18.5396L54.9766 18.298L54.9712 18.2926V18.1745L65.7215 18.4161Z" fill="#EDAD2F"/>
<path d="M65.7161 18.5397V18.6632L55.0732 18.4215L54.9766 18.298L65.7161 18.5397Z" fill="#EDAD2F"/>
<path d="M65.7162 18.6632L65.7108 18.7867L55.1699 18.5451L55.0732 18.4216L65.7162 18.6632Z" fill="#EDAD2F"/>
<path d="M65.7108 18.7867V18.9102L55.2719 18.6685L55.1699 18.545L65.7108 18.7867Z" fill="#EDAD2F"/>
<path d="M65.7108 18.9102L65.7055 19.0283L55.3686 18.7974L55.272 18.6685L65.7108 18.9102Z" fill="#EDAD2F"/>
<path d="M65.7055 19.0283V19.1518L55.4653 18.9209L55.3687 18.7974L65.7055 19.0283Z" fill="#EDAD2F"/>
<path d="M65.7055 19.1519L65.7001 19.2754L55.5674 19.0445L55.4653 18.921L65.7055 19.1519Z" fill="#EDAD2F"/>
<path d="M65.7002 19.2753V19.3988L55.664 19.1733L55.5674 19.0444L65.7002 19.2753Z" fill="#EDAD2F"/>
<path d="M65.7002 19.3988L65.6948 19.5223L55.7607 19.2968L55.6641 19.1733L65.7002 19.3988Z" fill="#EDAD2F"/>
<path d="M65.6948 19.5223V19.6458L55.8628 19.4203L55.7607 19.2968L65.6948 19.5223Z" fill="#EDAD2F"/>
<path d="M65.6949 19.6459L65.6895 19.764L55.9594 19.5439L55.8628 19.4203L65.6949 19.6459Z" fill="#EDAD2F"/>
<path d="M65.6895 19.764V19.8875L56.0561 19.6727L55.9595 19.5438L65.6895 19.764Z" fill="#EDAD2F"/>
<path d="M65.6891 19.8875L65.6837 19.9841L65.6568 20.011L56.1577 19.7962L56.0557 19.6727L65.6891 19.8875Z" fill="#EDAD2F"/>
<path d="M65.5011 20.1291L56.2544 19.9196L56.1577 19.7961L65.6569 20.0109L65.5011 20.1291Z" fill="#EDAD2F"/>
<path d="M65.3508 20.2473L56.3511 20.0432L56.2544 19.9197L65.5012 20.1292L65.3508 20.2473Z" fill="#EDAD2F"/>
<path d="M65.2005 20.3708L56.4531 20.1721L56.3511 20.0432L65.3508 20.2473L65.2005 20.3708Z" fill="#EDAD2F"/>
<path d="M65.0501 20.4889L56.5498 20.2956L56.4531 20.1721L65.2005 20.3707L65.0501 20.4889Z" fill="#EDAD2F"/>
<path d="M64.8998 20.607L56.6518 20.419L56.5498 20.2955L65.0502 20.4888L64.8998 20.607Z" fill="#EDAD2F"/>
<path d="M64.7495 20.7252L56.7485 20.5426L56.6519 20.4191L64.8998 20.6071L64.7495 20.7252Z" fill="#EDAD2F"/>
<path d="M64.5992 20.8433L56.8452 20.6715L56.7485 20.5426L64.7495 20.7252L64.5992 20.8433Z" fill="#EDAD2F"/>
<path d="M64.4435 20.9668L56.9472 20.795L56.8452 20.6714L64.5992 20.8433L64.4435 20.9668Z" fill="#EDAD2F"/>
<path d="M64.2931 21.085L57.0439 20.9185L56.9473 20.795L64.4435 20.9668L64.2931 21.085Z" fill="#EDAD2F"/>
<path d="M64.1428 21.2031L57.1406 21.042L57.0439 20.9185L64.2932 21.085L64.1428 21.2031Z" fill="#EDAD2F"/>
<path d="M63.9925 21.3212L57.2426 21.1709L57.1406 21.042L64.1428 21.2031L63.9925 21.3212Z" fill="#EDAD2F"/>
<path d="M63.8421 21.4393L57.3393 21.2943L57.2427 21.1708L63.9925 21.3212L63.8421 21.4393Z" fill="#EDAD2F"/>
<path d="M63.6918 21.5629L57.436 21.4179L57.3394 21.2944L63.8422 21.4394L63.6918 21.5629Z" fill="#EDAD2F"/>
<path d="M63.5361 21.681L57.5381 21.5467L57.436 21.4178L63.6918 21.5628L63.5361 21.681Z" fill="#EDAD2F"/>
<path d="M63.3858 21.7991L57.6347 21.6703L57.5381 21.5468L63.5361 21.681L63.3858 21.7991Z" fill="#EDAD2F"/>
<path d="M63.2354 21.9172L57.7314 21.7937L57.6348 21.6702L63.3858 21.7991L63.2354 21.9172Z" fill="#EDAD2F"/>
<path d="M63.0851 22.0354L57.8335 21.9173L57.7314 21.7938L63.2355 21.9173L63.0851 22.0354Z" fill="#EDAD2F"/>
<path d="M62.9348 22.1589L57.9302 22.0461L57.8335 21.9172L63.0851 22.0354L62.9348 22.1589Z" fill="#EDAD2F"/>
<path d="M62.7845 22.277L58.0322 22.1696L57.9302 22.0461L62.9348 22.1589L62.7845 22.277Z" fill="#EDAD2F"/>
<path d="M62.6336 22.3952L58.1284 22.2932L58.0317 22.1697L62.784 22.2771L62.6336 22.3952Z" fill="#EDAD2F"/>
<path d="M62.4779 22.5133L58.2251 22.4167L58.1284 22.2932L62.6337 22.3952L62.4779 22.5133Z" fill="#EDAD2F"/>
<path d="M62.3276 22.6314L58.3271 22.5455L58.2251 22.4166L62.478 22.5133L62.3276 22.6314Z" fill="#EDAD2F"/>
<path d="M62.1773 22.755L58.4238 22.669L58.3271 22.5455L62.3276 22.6314L62.1773 22.755Z" fill="#EDAD2F"/>
<path d="M62.027 22.8731L58.5205 22.7926L58.4238 22.6691L62.1773 22.755L62.027 22.8731Z" fill="#EDAD2F"/>
<path d="M61.8766 22.9912L58.6225 22.916L58.5205 22.7925L62.027 22.8731L61.8766 22.9912Z" fill="#EDAD2F"/>
<path d="M61.7263 23.1093L58.7192 23.0449L58.6226 22.916L61.8766 22.9912L61.7263 23.1093Z" fill="#EDAD2F"/>
<path d="M61.576 23.2329L58.8159 23.1684L58.7192 23.0449L61.7263 23.1094L61.576 23.2329Z" fill="#EDAD2F"/>
<path d="M61.4203 23.351L58.9179 23.292L58.8159 23.1685L61.576 23.2329L61.4203 23.351Z" fill="#EDAD2F"/>
<path d="M61.2699 23.4691L59.0146 23.4154L58.918 23.2919L61.4203 23.351L61.2699 23.4691Z" fill="#EDAD2F"/>
<path d="M61.1196 23.5872L59.1113 23.5443L59.0146 23.4154L61.27 23.4691L61.1196 23.5872Z" fill="#EDAD2F"/>
<path d="M60.9693 23.7054L59.2134 23.6678L59.1113 23.5443L61.1196 23.5873L60.9693 23.7054Z" fill="#EDAD2F"/>
<path d="M60.8189 23.8289L59.31 23.7914L59.2134 23.6678L60.9693 23.7054L60.8189 23.8289Z" fill="#EDAD2F"/>
<path d="M60.6686 23.947L59.4067 23.9148L59.3101 23.7913L60.819 23.8289L60.6686 23.947Z" fill="#EDAD2F"/>
<path d="M60.5183 24.0651L59.5088 24.0437L59.4067 23.9148L60.6686 23.947L60.5183 24.0651Z" fill="#EDAD2F"/>
<path d="M60.3626 24.1833L59.6054 24.1671L59.5088 24.0436L60.5183 24.0651L60.3626 24.1833Z" fill="#EDAD2F"/>
<path d="M60.2123 24.3015L59.7075 24.2907L59.6055 24.1672L60.3626 24.1833L60.2123 24.3015Z" fill="#EDAD2F"/>
<path d="M60.0619 24.425L59.8042 24.4196L59.7075 24.2907L60.2123 24.3014L60.0619 24.425Z" fill="#EDAD2F"/>
<path d="M59.9116 24.5431H59.9009L59.8042 24.4196L60.0619 24.4249L59.9116 24.5431Z" fill="#EDAD2F"/>
<path d="M59.9009 24.543H59.9097L59.9053 24.5474L59.9009 24.543Z" fill="#EDAD2F"/>
<path d="M111.031 56.1389C111.031 56.1389 113.254 59.8494 114.081 60.3757C114.081 60.3757 116.911 63.2324 123.822 60.22C123.822 60.22 131.077 56.9605 132.978 51.8861C132.978 51.8861 134.787 48.3313 132.586 45.8182L130.819 43.1763L120.745 45.2114L112.868 51.3383L111.031 56.1389Z" fill="#F18721"/>
<path d="M124.617 55.2958C122.028 56.9927 119.22 58.0344 116.712 58.2331C114.07 58.4425 112.051 57.7015 111.026 56.1389C110.006 54.5763 110.129 52.4284 111.375 50.0925C112.562 47.8748 114.64 45.7161 117.228 44.0193C119.816 42.3224 122.625 41.2807 125.132 41.082C127.774 40.8726 129.793 41.6136 130.819 43.1762C131.839 44.7388 131.716 46.8868 130.47 49.2226C129.283 51.4457 127.205 53.599 124.617 55.2958Z" fill="#FAB817"/>
<path d="M117.008 52.7022L120.423 47.1767L118.135 47.5258L118.56 46.8384L125.422 45.7967L124.998 46.484L122.705 46.8331L119.29 52.3586L117.008 52.7022Z" fill="#FDDB44"/>
<path d="M36.7241 24.9834C36.7241 24.9834 33.717 28.8657 33.4968 29.9558C33.4968 29.9558 31.6389 34.1335 37.6745 40.2014C37.6745 40.2014 44.1129 46.5323 50.272 46.4572C50.272 46.4572 54.7773 46.9082 56.5332 43.5467L58.6006 40.588L52.2964 30.7559L42.561 24.9512L36.7241 24.9834Z" fill="#F18721"/>
<path d="M43.216 39.0146C40.3539 36.9741 38.0932 34.4342 36.8474 31.8621C35.5372 29.1504 35.4888 26.7071 36.7239 24.9834C37.9536 23.2597 40.2787 22.5026 43.2697 22.8623C46.1049 23.2006 49.2462 24.5109 52.1083 26.5514C54.9704 28.5919 57.2311 31.1318 58.4769 33.7039C59.7871 36.4157 59.8354 38.8589 58.6004 40.5826C57.3707 42.3063 55.0456 43.0635 52.0546 42.7037C49.214 42.3654 46.0781 41.0552 43.216 39.0146Z" fill="#FAB817"/>
<path d="M50.2452 35.9968L45.885 30.0471L43.2591 29.8591L42.7168 29.1181L50.5782 29.6819L51.1205 30.423L48.4947 30.235L52.8549 36.1847L50.2452 35.9968Z" fill="#FDDB44"/>
<path d="M63.8197 54.7857L68.3088 57.4652C69.1572 57.9699 70.0432 57.9753 70.2795 57.4706C70.5212 56.9658 70.0218 56.1496 69.1733 55.6395L64.6896 52.9599L65.9515 50.3019C66.1931 49.7971 65.6991 48.9809 64.8453 48.4708C63.9969 47.9607 63.1108 47.9607 62.8746 48.4654L61.6073 51.1235L57.1182 48.4439C56.2697 47.9392 55.3837 47.9338 55.1475 48.4386C55.0293 48.691 55.0938 49.0185 55.2924 49.3514C55.4911 49.6844 55.8294 50.0173 56.2536 50.2697L60.7374 52.9492L59.4755 55.6072C59.3574 55.8596 59.4218 56.1925 59.6205 56.5201C59.8192 56.853 60.1575 57.1806 60.5817 57.4383C61.4301 57.9485 62.3161 57.9485 62.5524 57.4437L63.8197 54.7857Z" fill="#4A335E"/>
<path d="M117.152 34.5469L115.6 19.1464C115.504 18.2066 115.015 17.1971 114.344 16.5474C113.667 15.8976 112.921 15.7151 112.411 16.0748L104.082 21.9762C103.615 22.3038 103.422 23.0395 103.567 23.9201C103.712 24.8007 104.179 25.6975 104.796 26.2935L114.677 35.7873C115.294 36.3834 115.976 36.5874 116.486 36.335C116.986 36.088 117.238 35.4061 117.152 34.5469ZM108.899 25.2303L112.362 22.7763L113.007 29.1825L108.899 25.2303Z" fill="#314884"/>
<path d="M92.0489 15.1567L84.0264 1.10395C83.2048 -0.33515 81.7174 -0.372738 80.7079 1.02341L70.8436 14.6465C69.8341 16.0427 69.6837 18.341 70.5053 19.7801L78.5278 33.8328C79.3493 35.2719 80.8368 35.3095 81.8463 33.9133L91.7106 20.2902C92.7201 18.8994 92.8704 16.5958 92.0489 15.1567ZM80.6918 26.1701L75.6495 17.3368L81.857 8.76663L86.8992 17.5999L80.6918 26.1701Z" fill="#B8DBD1"/>
<path d="M83.5699 40.9531C78.1786 40.9531 73.7915 45.3402 73.7915 50.7369C73.7915 56.1335 78.1786 60.526 83.5699 60.526C88.9611 60.526 93.3483 56.1335 93.3483 50.7369C93.3429 45.3456 88.9558 40.9531 83.5699 40.9531ZM83.5699 55.371C81.0192 55.371 78.9519 53.2929 78.9519 50.7369C78.9519 48.1862 81.0246 46.1081 83.5699 46.1081C86.1205 46.1081 88.1879 48.1862 88.1879 50.7369C88.1879 53.2875 86.1152 55.371 83.5699 55.371Z" fill="#A5589A"/>
<path d="M76.5466 92.7339L71.15 86.1023L68.0999 86.0378L67.4287 85.2109L76.5573 85.4096L77.2286 86.2365L74.1785 86.1721L79.5752 92.8037L76.5466 92.7339Z" fill="#FDDB44"/>
<path d="M1.76679 53.3198C4.47317 52.1975 7.23323 50.9732 9.96645 49.6361C13.9938 53.003 16.2867 54.3937 21.6135 57.3632C22.3223 51.1289 22.6767 48.9165 21.3665 43.0635C24.6743 40.776 27.7351 38.2307 30.3501 35.3578C26.5322 34.3537 22.5962 33.8221 18.644 33.7523C18.6225 33.6986 18.6011 33.6449 18.5796 33.5912C17.6452 31.0244 16.5605 28.5167 15.3255 26.0789C12.4312 28.6027 9.96108 31.5184 7.94205 34.7135C5.43436 35.2182 2.95889 35.9163 0.558594 36.8023C1.63255 38.7623 2.83538 40.6632 4.14024 42.5158C3.24349 44.9805 2.57226 47.5473 2.15879 50.1677C1.98696 51.2041 1.85808 52.2619 1.76679 53.3198Z" fill="#EBAB2F"/>
<path d="M17.672 26.154L0.24707 45.7967L0.955882 25.5687L17.672 26.154Z" fill="#EBAB2F"/>
<path d="M18.1929 26.1755L0.225586 46.425L0.247065 45.7967L17.672 26.1541L18.1929 26.1755Z" fill="#EBAB2F"/>
<path d="M18.7137 26.1916L0.204102 47.0586L0.225581 46.425L18.1929 26.1755L18.7137 26.1916Z" fill="#EBAB2F"/>
<path d="M19.2346 26.2078L0.182617 47.6869L0.204096 47.0586L18.7137 26.1917L19.2346 26.2078Z" fill="#EBAB2F"/>
<path d="M19.7555 26.2292L0.161133 48.3205L0.182612 47.6869L19.2346 26.2078L19.7555 26.2292Z" fill="#EBAB2F"/>
<path d="M20.2817 26.2454L0.139648 48.9542L0.161128 48.3205L19.7555 26.2292L20.2817 26.2454Z" fill="#EBAB2F"/>
<path d="M20.8026 26.2668L0.118164 49.5824L0.139643 48.9542L20.2817 26.2454L20.8026 26.2668Z" fill="#EBAB2F"/>
<path d="M21.3234 26.283L0.0966797 50.2161L0.118159 49.5824L20.8026 26.2668L21.3234 26.283Z" fill="#EBAB2F"/>
<path d="M21.4308 26.2883L21.6671 26.4977L0.0698242 50.8443L0.0966731 50.2161L21.3234 26.283L21.4308 26.2883Z" fill="#EBAB2F"/>
<path d="M21.6671 26.4977L21.9678 26.7662L0.0483398 51.4779L0.069819 50.8443L21.6671 26.4977Z" fill="#EBAB2F"/>
<path d="M21.9678 26.7662L22.2739 27.0347L0.0268555 52.1062L0.0483346 51.478L21.9678 26.7662Z" fill="#EBAB2F"/>
<path d="M22.2739 27.0347L22.5746 27.3032L0.00537109 52.7398L0.0268502 52.1062L22.2739 27.0347Z" fill="#EBAB2F"/>
<path d="M22.5746 27.3032L22.8753 27.5663L0.220161 53.0997L0 52.9063L0.00536978 52.7399L22.5746 27.3032Z" fill="#EBAB2F"/>
<path d="M22.8657 27.5685L0.220215 53.1014L0.5215 53.3687L23.167 27.8357L22.8657 27.5685Z" fill="#EBAB2F"/>
<path d="M23.1718 27.8375L0.522949 53.3704L0.824234 53.6376L23.4731 28.1047L23.1718 27.8375Z" fill="#EBAB2F"/>
<path d="M23.4741 28.1057L0.825195 53.6386L1.12648 53.9059L23.7754 28.373L23.4741 28.1057Z" fill="#EBAB2F"/>
<path d="M23.7758 28.3695L1.12354 53.899L1.42478 54.1663L24.0771 28.6368L23.7758 28.3695Z" fill="#EBAB2F"/>
<path d="M24.0727 28.634L1.42725 54.1669L1.72853 54.4341L24.374 28.9012L24.0727 28.634Z" fill="#EBAB2F"/>
<path d="M24.3789 28.9035L1.72998 54.4364L2.03127 54.7037L24.6802 29.1707L24.3789 28.9035Z" fill="#EBAB2F"/>
<path d="M24.6811 29.1704L2.03223 54.7033L2.33351 54.9706L24.9824 29.4377L24.6811 29.1704Z" fill="#EBAB2F"/>
<path d="M24.979 29.4353L2.33008 54.9682L2.63136 55.2355L25.2803 29.7025L24.979 29.4353Z" fill="#EBAB2F"/>
<path d="M25.2807 29.704L2.63184 55.2369L2.93312 55.5042L25.582 29.9713L25.2807 29.704Z" fill="#EBAB2F"/>
<path d="M25.5825 29.9723L2.93359 55.5052L3.23488 55.7724L25.8838 30.2395L25.5825 29.9723Z" fill="#EBAB2F"/>
<path d="M25.8847 30.2401L3.23584 55.773L3.53712 56.0403L26.186 30.5074L25.8847 30.2401Z" fill="#EBAB2F"/>
<path d="M26.1826 30.5052L3.53369 56.0381L3.83498 56.3053L26.4839 30.7724L26.1826 30.5052Z" fill="#EBAB2F"/>
<path d="M26.4843 30.7734L3.83545 56.3063L4.13673 56.5736L26.7856 31.0407L26.4843 30.7734Z" fill="#EBAB2F"/>
<path d="M26.7845 31.0406L27.0906 31.3091L4.51065 56.7618L4.33882 56.7565L4.13477 56.5739L26.7845 31.0406Z" fill="#EBAB2F"/>
<path d="M27.0907 31.309L27.3914 31.5721L5.03161 56.7779L4.51074 56.7618L27.0907 31.309Z" fill="#EBAB2F"/>
<path d="M27.3915 31.5721L27.6922 31.8406L5.55261 56.7994L5.03174 56.7779L27.3915 31.5721Z" fill="#EBAB2F"/>
<path d="M27.6919 31.8406L27.9926 32.1091L6.07312 56.8155L5.55225 56.7994L27.6919 31.8406Z" fill="#EBAB2F"/>
<path d="M27.9927 32.1091L28.2934 32.3723L6.59411 56.8316L6.07324 56.8155L27.9927 32.1091Z" fill="#EBAB2F"/>
<path d="M28.2935 32.3723L28.5942 32.6407L7.11511 56.8531L6.59424 56.8316L28.2935 32.3723Z" fill="#EBAB2F"/>
<path d="M28.5944 32.6407L28.8951 32.9092L7.64147 56.8692L7.11523 56.8531L28.5944 32.6407Z" fill="#EBAB2F"/>
<path d="M28.8947 32.9092L29.1954 33.1777L8.16198 56.8907L7.64111 56.8692L28.8947 32.9092Z" fill="#EBAB2F"/>
<path d="M29.1955 33.1777L29.4963 33.4409L8.68298 56.9068L8.16211 56.8907L29.1955 33.1777Z" fill="#EBAB2F"/>
<path d="M29.4959 33.4408L29.7966 33.7093L9.20349 56.9229L8.68262 56.9067L29.4959 33.4408Z" fill="#EBAB2F"/>
<path d="M29.7972 33.7094L30.0979 33.9778L9.72497 56.9444L9.2041 56.9229L29.7972 33.7094Z" fill="#EBAB2F"/>
<path d="M30.0976 33.9778L30.3875 34.2355V34.257L10.2455 56.9605L9.72461 56.9443L30.0976 33.9778Z" fill="#EBAB2F"/>
<path d="M30.3662 34.8853L10.7718 56.9819L10.2456 56.9605L30.3877 34.257L30.3662 34.8853Z" fill="#EBAB2F"/>
<path d="M30.3448 35.5189L11.2928 56.9981L10.772 56.982L30.3663 34.8853L30.3448 35.5189Z" fill="#EBAB2F"/>
<path d="M30.3235 36.1472L11.8138 57.0142L11.293 56.9981L30.345 35.5189L30.3235 36.1472Z" fill="#EBAB2F"/>
<path d="M30.3016 36.7809L12.3343 57.0357L11.8135 57.0142L30.3231 36.1472L30.3016 36.7809Z" fill="#EBAB2F"/>
<path d="M30.2803 37.4145L12.8553 57.0518L12.3345 57.0357L30.3018 36.7809L30.2803 37.4145Z" fill="#EBAB2F"/>
<path d="M30.2584 38.0428L13.3758 57.0733L12.855 57.0518L30.2799 37.4145L30.2584 38.0428Z" fill="#EBAB2F"/>
<path d="M30.2371 38.6764L13.9022 57.0893L13.376 57.0732L30.2586 38.0427L30.2371 38.6764Z" fill="#EBAB2F"/>
<path d="M30.2104 39.3046L14.4232 57.1054L13.9023 57.0893L30.2372 38.6763L30.2104 39.3046Z" fill="#EBAB2F"/>
<path d="M30.189 39.9383L14.9442 57.127L14.4233 57.1055L30.2105 39.3047L30.189 39.9383Z" fill="#EBAB2F"/>
<path d="M30.1672 40.5666L15.4647 57.1431L14.9438 57.127L30.1887 39.9383L30.1672 40.5666Z" fill="#EBAB2F"/>
<path d="M30.1463 41.2002L15.9862 57.1645L15.4653 57.143L30.1678 40.5665L30.1463 41.2002Z" fill="#EBAB2F"/>
<path d="M30.1245 41.8338L16.5067 57.1806L15.9858 57.1645L30.146 41.2001L30.1245 41.8338Z" fill="#EBAB2F"/>
<path d="M30.1031 42.4621L17.0331 57.1967L16.5068 57.1806L30.1246 41.8338L30.1031 42.4621Z" fill="#EBAB2F"/>
<path d="M30.0813 43.0957L17.5536 57.2183L17.0327 57.1968L30.1028 42.4621L30.0813 43.0957Z" fill="#EBAB2F"/>
<path d="M30.0599 43.724L18.0746 57.2343L17.5537 57.2182L30.0814 43.0957L30.0599 43.724Z" fill="#EBAB2F"/>
<path d="M30.0386 44.3576L18.5956 57.2559L18.0747 57.2344L30.0601 43.724L30.0386 44.3576Z" fill="#EBAB2F"/>
<path d="M30.0119 44.9859L19.1166 57.2719L18.5957 57.2558L30.0387 44.3576L30.0119 44.9859Z" fill="#EBAB2F"/>
<path d="M29.99 45.6195L19.6371 57.288L19.1162 57.2719L30.0115 44.9858L29.99 45.6195Z" fill="#EBAB2F"/>
<path d="M29.9692 46.2532L20.1586 57.3096L19.6377 57.2881L29.9906 45.6196L29.9692 46.2532Z" fill="#EBAB2F"/>
<path d="M29.9473 46.8814L20.6844 57.3257L20.1582 57.3096L29.9688 46.2532L29.9473 46.8814Z" fill="#EBAB2F"/>
<path d="M29.926 47.515L21.2054 57.3471L20.6846 57.3256L29.9474 46.8814L29.926 47.515Z" fill="#EBAB2F"/>
<path d="M29.9041 48.1433L21.7259 57.3632L21.2051 57.3471L29.9256 47.515L29.9041 48.1433Z" fill="#EBAB2F"/>
<path d="M29.8828 48.7769L22.2469 57.3793L21.7261 57.3632L29.9043 48.1432L29.8828 48.7769Z" fill="#EBAB2F"/>
<path d="M29.8614 49.4052L22.7679 57.4009L22.2471 57.3794L29.8829 48.777L29.8614 49.4052Z" fill="#EBAB2F"/>
<path d="M29.8401 50.0388L23.2889 57.4169L22.7681 57.4008L29.8615 49.4052L29.8401 50.0388Z" fill="#EBAB2F"/>
<path d="M29.8129 50.6725L23.8148 57.4384L23.2886 57.4169L29.8397 50.0388L29.8129 50.6725Z" fill="#EBAB2F"/>
<path d="M29.7915 51.3007L24.3358 57.4545L23.8149 57.4384L29.813 50.6725L29.7915 51.3007Z" fill="#EBAB2F"/>
<path d="M29.7702 51.9344L24.8568 57.4706L24.3359 57.4545L29.7916 51.3007L29.7702 51.9344Z" fill="#EBAB2F"/>
<path d="M29.7488 52.5627L25.3778 57.4921L24.8569 57.4706L29.7703 51.9344L29.7488 52.5627Z" fill="#EBAB2F"/>
<path d="M29.727 53.1963L25.8983 57.5083L25.3774 57.4921L29.7484 52.5627L29.727 53.1963Z" fill="#EBAB2F"/>
<path d="M29.7056 53.8246L26.4193 57.5297L25.8984 57.5082L29.7271 53.1963L29.7056 53.8246Z" fill="#EBAB2F"/>
<path d="M29.6843 54.4582L26.9457 57.5458L26.4194 57.5297L29.7057 53.8245L29.6843 54.4582Z" fill="#EBAB2F"/>
<path d="M29.6624 55.0864L27.4662 57.5619L26.9453 57.5458L29.6839 54.4581L29.6624 55.0864Z" fill="#EBAB2F"/>
<path d="M29.6357 55.7201L27.9872 57.5834L27.4663 57.5619L29.6625 55.0864L29.6357 55.7201Z" fill="#EBAB2F"/>
<path d="M29.6144 56.3537L28.5082 57.5995L27.9873 57.5834L29.6358 55.7201L29.6144 56.3537Z" fill="#EBAB2F"/>
<path d="M29.593 56.982L29.0292 57.621L28.5083 57.5995L29.6145 56.3537L29.593 56.982Z" fill="#EBAB2F"/>
<path d="M29.5716 57.6156L29.5502 57.637L29.0293 57.6209L29.5931 56.9819L29.5716 57.6156Z" fill="#EBAB2F"/>
<path d="M29.5498 57.6365L29.5707 57.6156V57.6365H29.5498Z" fill="#EBAB2F"/>
<defs>
<linearGradient id="paint0_linear_1121_14076" x1="3.07682" y1="63.2117" x2="145.334" y2="63.2117" gradientUnits="userSpaceOnUse">
<stop stop-color="#2488C4"/>
<stop offset="0.0165" stop-color="#0093CD"/>
<stop offset="1" stop-color="#414D9B"/>
</linearGradient>
<linearGradient id="paint1_linear_1121_14076" x1="74.2058" y1="124.775" x2="145.406" y2="124.775" gradientUnits="userSpaceOnUse">
<stop stop-color="#2488C4"/>
<stop offset="0.0165" stop-color="#0093CD"/>
<stop offset="1" stop-color="#414D9B"/>
</linearGradient>
<linearGradient id="paint2_linear_1121_14076" x1="-21.5432" y1="62.2323" x2="89.7731" y2="201.572" gradientUnits="userSpaceOnUse">
<stop stop-color="#2488C4"/>
<stop offset="0.0165" stop-color="#0093CD"/>
<stop offset="1" stop-color="#414D9B"/>
</linearGradient>
<linearGradient id="paint3_linear_1121_14076" x1="-9.68776" y1="52.7609" x2="101.629" y2="192.101" gradientUnits="userSpaceOnUse">
<stop stop-color="#2488C4"/>
<stop offset="0.0165" stop-color="#0093CD"/>
<stop offset="1" stop-color="#414D9B"/>
</linearGradient>
<linearGradient id="paint4_linear_1121_14076" x1="-21.9015" y1="62.5185" x2="89.4153" y2="201.859" gradientUnits="userSpaceOnUse">
<stop stop-color="#2488C4"/>
<stop offset="0.0165" stop-color="#0093CD"/>
<stop offset="1" stop-color="#414D9B"/>
</linearGradient>
</defs>
</svg>
