<svg width="100" height="100" viewBox="0 0 100 100" xmlns="http://www.w3.org/2000/svg" xmlns:xlink="http://www.w3.org/1999/xlink">
    <defs>
        <path id="habsk2aqza" d="M0 0h42.477v26.295H0z"/>
        <path id="b7zk769ipc" d="M0 0h32.364v34.386H0z"/>
    </defs>
    <g fill="none" fill-rule="evenodd">
        <path d="M0 0h100v100H0z"/>
        <g transform="translate(30.273 5)">
            <mask id="bi03m2w0rb" fill="#fff">
                <use xlink:href="#habsk2aqza"/>
            </mask>
            <path d="M13.016 25.498c.27.402.78.572 1.24.41a19.782 19.782 0 0 1 6.593-1.127c2.615 0 5.103.518 7.384 1.438.466.188 1.001.02 1.28-.396L42.3 6.743a1.056 1.056 0 0 0-.396-1.522A44.812 44.812 0 0 0 20.85 0 44.83 44.83 0 0 0 .59 4.81a1.056 1.056 0 0 0-.412 1.532l12.838 19.156z" fill="#FF6700" mask="url(#bi03m2w0rb)"/>
        </g>
        <path d="m75.656 14.585-12.84 19.488a1.089 1.089 0 0 0 .19 1.416 20.07 20.07 0 0 1 6.628 12.083c.08.528.53.917 1.06.917h23.228c.63 0 1.12-.542 1.075-1.174a45.556 45.556 0 0 0-17.783-32.987 1.076 1.076 0 0 0-1.558.257M24.139 13.299A44.929 44.929 0 0 0 6.003 46.32c-.045.623.435 1.157 1.052 1.157h22.749c.518 0 .961-.38 1.04-.9a19.79 19.79 0 0 1 7.123-12.44c.427-.346.523-.963.221-1.424L25.646 13.567a1.05 1.05 0 0 0-1.507-.268" fill="#FF2F00"/>
        <path d="M58.723 69.514a1.066 1.066 0 0 0-1.24-.411 19.782 19.782 0 0 1-6.594 1.127c-2.614 0-5.102-.518-7.383-1.437a1.065 1.065 0 0 0-1.28.395l-12.787 19.08a1.056 1.056 0 0 0 .395 1.522 44.812 44.812 0 0 0 21.055 5.221 44.83 44.83 0 0 0 20.26-4.81 1.056 1.056 0 0 0 .412-1.531L58.723 69.514z" fill="#E5DDDD"/>
        <g transform="translate(6 51.523)">
            <mask id="4ulpgwbdfd" fill="#fff">
                <use xlink:href="#b7zk769ipc"/>
            </mask>
            <path d="m19.344 33.903 12.84-19.487a1.089 1.089 0 0 0-.19-1.417A20.069 20.069 0 0 1 25.365.916 1.075 1.075 0 0 0 24.306 0H1.077C.448 0-.042.541.003 1.174a45.556 45.556 0 0 0 17.783 32.987 1.076 1.076 0 0 0 1.558-.258" fill="#FF6700" mask="url(#4ulpgwbdfd)"/>
        </g>
        <path d="M76.861 86.713A44.929 44.929 0 0 0 94.997 53.69c.045-.623-.435-1.157-1.052-1.157H71.196c-.518 0-.961.381-1.04.9a19.79 19.79 0 0 1-7.123 12.44 1.076 1.076 0 0 0-.221 1.424l12.542 19.146a1.05 1.05 0 0 0 1.507.269" fill="#FF6700"/>
        <path d="M55.682 57.444c-4.245 2.397-9.66.954-12.096-3.225s-.969-9.51 3.276-11.907c3.3-1.863 16.698-3.357 22.507-3.93 1.06-.105 1.746 1.072 1.12 1.92-3.435 4.647-11.508 15.279-14.807 17.142" fill="#E5DDDD"/>
    </g>
</svg>
