<?xml version="1.0" encoding="UTF-8" standalone="no" ?>
<!DOCTYPE svg PUBLIC "-//W3C//DTD SVG 1.1//EN" "http://www.w3.org/Graphics/SVG/1.1/DTD/svg11.dtd">
<svg xmlns="http://www.w3.org/2000/svg" xmlns:xlink="http://www.w3.org/1999/xlink" version="1.1" width="100" height="100" viewBox="0 0 100 100" xml:space="preserve">
<desc>Created with Fabric.js 3.6.6</desc>
<defs>
</defs>
<g transform="matrix(1 0 0 1 50 50)"  >
<g style=""   >
		<g transform="matrix(1 0 0 1 0 0)"  >
<path style="stroke: none; stroke-width: 1; stroke-dasharray: none; stroke-linecap: butt; stroke-dashoffset: 0; stroke-linejoin: miter; stroke-miterlimit: 4; fill: none; fill-rule: evenodd; opacity: 1;"  transform=" translate(-50, -50)" d="M 0 0 h 100 v 100 H 0 z" stroke-linecap="round" />
</g>
		<g transform="matrix(1 0 0 1 1.51 -31.85)"  >
<path style="stroke: none; stroke-width: 1; stroke-dasharray: none; stroke-linecap: butt; stroke-dashoffset: 0; stroke-linejoin: miter; stroke-miterlimit: 4; fill: rgb(255,103,0); fill-rule: evenodd; opacity: 1;"  transform=" translate(-21.24, -13.15)" d="M 13.016 25.498 c 0.27 0.402 0.78 0.572 1.24 0.41 a 19.782 19.782 0 0 1 6.593 -1.127 c 2.615 0 5.103 0.518 7.384 1.438 c 0.466 0.188 1.001 0.02 1.28 -0.396 L 42.3 6.743 a 1.056 1.056 0 0 0 -0.396 -1.522 A 44.812 44.812 0 0 0 20.85 0 A 44.83 44.83 0 0 0 0.59 4.81 a 1.056 1.056 0 0 0 -0.412 1.532 l 12.838 19.156 z" stroke-linecap="round" />
</g>
		<g transform="matrix(1 0 0 1 0.5 -19.21)"  >
<path style="stroke: none; stroke-width: 1; stroke-dasharray: none; stroke-linecap: butt; stroke-dashoffset: 0; stroke-linejoin: miter; stroke-miterlimit: 4; fill: rgb(255,47,0); fill-rule: evenodd; opacity: 1;"  transform=" translate(-50.5, -30.79)" d="m 75.656 14.585 l -12.84 19.488 a 1.089 1.089 0 0 0 0.19 1.416 a 20.07 20.07 0 0 1 6.628 12.083 c 0.08 0.528 0.53 0.917 1.06 0.917 h 23.228 c 0.63 0 1.12 -0.542 1.075 -1.174 a 45.556 45.556 0 0 0 -17.783 -32.987 a 1.076 1.076 0 0 0 -1.558 0.257 M 24.139 13.299 A 44.929 44.929 0 0 0 6.003 46.32 c -0.045 0.623 0.435 1.157 1.052 1.157 h 22.749 c 0.518 0 0.961 -0.38 1.04 -0.9 a 19.79 19.79 0 0 1 7.123 -12.44 c 0.427 -0.346 0.523 -0.963 0.221 -1.424 L 25.646 13.567 a 1.05 1.05 0 0 0 -1.507 -0.268" stroke-linecap="round" />
</g>
		<g transform="matrix(1 0 0 1 0.5 31.86)"  >
<path style="stroke: none; stroke-width: 1; stroke-dasharray: none; stroke-linecap: butt; stroke-dashoffset: 0; stroke-linejoin: miter; stroke-miterlimit: 4; fill: rgb(229,221,221); fill-rule: evenodd; opacity: 1;"  transform=" translate(-50.5, -81.86)" d="M 58.723 69.514 a 1.066 1.066 0 0 0 -1.24 -0.411 a 19.782 19.782 0 0 1 -6.594 1.127 c -2.614 0 -5.102 -0.518 -7.383 -1.437 a 1.065 1.065 0 0 0 -1.28 0.395 l -12.787 19.08 a 1.056 1.056 0 0 0 0.395 1.522 a 44.812 44.812 0 0 0 21.055 5.221 a 44.83 44.83 0 0 0 20.26 -4.81 a 1.056 1.056 0 0 0 0.412 -1.531 L 58.723 69.514 z" stroke-linecap="round" />
</g>
		<g transform="matrix(1 0 0 1 -27.82 18.72)"  >
<path style="stroke: none; stroke-width: 1; stroke-dasharray: none; stroke-linecap: butt; stroke-dashoffset: 0; stroke-linejoin: miter; stroke-miterlimit: 4; fill: rgb(255,103,0); fill-rule: evenodd; opacity: 1;"  transform=" translate(-16.18, -17.19)" d="m 19.344 33.903 l 12.84 -19.487 a 1.089 1.089 0 0 0 -0.19 -1.417 A 20.069 20.069 0 0 1 25.365 0.916 A 1.075 1.075 0 0 0 24.306 0 H 1.077 C 0.448 0 -0.042 0.541 0.003 1.174 a 45.556 45.556 0 0 0 17.783 32.987 a 1.076 1.076 0 0 0 1.558 -0.258" stroke-linecap="round" />
</g>
		<g transform="matrix(1 0 0 1 28.82 19.73)"  >
<path style="stroke: none; stroke-width: 1; stroke-dasharray: none; stroke-linecap: butt; stroke-dashoffset: 0; stroke-linejoin: miter; stroke-miterlimit: 4; fill: rgb(255,103,0); fill-rule: evenodd; opacity: 1;"  transform=" translate(-78.82, -69.73)" d="M 76.861 86.713 A 44.929 44.929 0 0 0 94.997 53.69 c 0.045 -0.623 -0.435 -1.157 -1.052 -1.157 H 71.196 c -0.518 0 -0.961 0.381 -1.04 0.9 a 19.79 19.79 0 0 1 -7.123 12.44 a 1.076 1.076 0 0 0 -0.221 1.424 l 12.542 19.146 a 1.05 1.05 0 0 0 1.507 0.269" stroke-linecap="round" />
</g>
		<g transform="matrix(1 0 0 1 6.57 -1.51)"  >
<path style="stroke: none; stroke-width: 1; stroke-dasharray: none; stroke-linecap: butt; stroke-dashoffset: 0; stroke-linejoin: miter; stroke-miterlimit: 4; fill: rgb(229,221,221); fill-rule: evenodd; opacity: 1;"  transform=" translate(-56.57, -48.49)" d="M 55.682 57.444 c -4.245 2.397 -9.66 0.954 -12.096 -3.225 s -0.969 -9.51 3.276 -11.907 c 3.3 -1.863 16.698 -3.357 22.507 -3.93 c 1.06 -0.105 1.746 1.072 1.12 1.92 c -3.435 4.647 -11.508 15.279 -14.807 17.142" stroke-linecap="round" />
</g>
</g>
</g>
</svg>