<svg width="100" height="100" viewBox="0 0 100 100" xmlns="http://www.w3.org/2000/svg" xmlns:xlink="http://www.w3.org/1999/xlink">
    <defs>
        <path id="cukzro0r8a" d="M0 0h44v44H0z"/>
        <path id="onk439to5c" d="M0 0h44v44H0z"/>
        <path id="m4ahgy7lae" d="M0 0h44v44H0z"/>
        <path id="ra5ebejfeg" d="M0 0h44v44H0z"/>
    </defs>
    <g fill="none" fill-rule="evenodd">
        <path d="M0 0h100v100H0z"/>
        <g transform="translate(6 6)">
            <mask id="flz4zb9mpb" fill="#fff">
                <use xlink:href="#cukzro0r8a"/>
            </mask>
            <path d="M44 19.234C42.596 8.384 33.33 0 22.097 0 9.893 0 0 9.893 0 22.096 0 33.334 8.393 42.603 19.252 44L44 19.234z" fill="#FF6700" mask="url(#flz4zb9mpb)"/>
        </g>
        <g transform="translate(50 6)">
            <mask id="q5kxtxw9wd" fill="#fff">
                <use xlink:href="#onk439to5c"/>
            </mask>
            <path d="M24.749 44C35.607 42.603 44 33.334 44 22.096 44 9.893 34.107 0 21.903 0 10.67 0 1.405 8.384 0 19.234L24.749 44z" fill="#FF2F00" mask="url(#q5kxtxw9wd)"/>
        </g>
        <g transform="translate(6 50)">
            <mask id="83mrb5jmyf" fill="#fff">
                <use xlink:href="#m4ahgy7lae"/>
            </mask>
            <path d="M19.251 0C8.393 1.397 0 10.666 0 21.904 0 34.107 9.893 44 22.097 44 33.33 44 42.596 35.616 44 24.766L19.251 0z" fill="#FF2F00" mask="url(#83mrb5jmyf)"/>
        </g>
        <g transform="translate(50 50)">
            <mask id="25sy4b4f2h" fill="#fff">
                <use xlink:href="#ra5ebejfeg"/>
            </mask>
            <path d="M24.749 0 0 24.766C1.405 35.616 10.67 44 21.903 44 34.107 44 44 34.107 44 21.904 44 10.666 35.607 1.397 24.749 0" fill="#FF6700" mask="url(#25sy4b4f2h)"/>
        </g>
        <path d="M75.17 50.008v-.016l-.054.008.054.008M50.012 24.814h-.024c.004.029.009.057.012.086.003-.029.008-.057.012-.086M49.988 74.138h.024c-.004-.029-.009-.057-.012-.086-.003.03-.008.057-.012.086M24.83 49.992v.016l.054-.008-.054-.008" fill="#FF2F00"/>
        <path d="M74.238 49.653c-.08-.01-.16-.025-.24-.034.08-.01.16-.024.24-.034V28.26c0-1.8-1.46-3.26-3.26-3.26H49.67c-.017.129-.037.256-.052.386-.015-.13-.036-.257-.052-.386H28.26A3.26 3.26 0 0 0 25 28.26v21.325c.08.01.16.025.24.034-.08.01-.16.024-.24.034v21.325c0 1.8 1.46 3.26 3.26 3.26h21.307c.016-.129.037-.256.052-.386.015.13.035.257.052.386h21.307c1.8 0 3.26-1.46 3.26-3.26V49.653z" fill="#FFF"/>
        <path d="M51.092 63.383a22.135 22.135 0 0 1 12.273-12.27c1.291-.52 1.291-2.372 0-2.892a22.135 22.135 0 0 1-12.273-12.27c-.507-1.268-2.343-1.268-2.85 0a22.135 22.135 0 0 1-12.273 12.27c-1.292.52-1.292 2.372 0 2.891a22.135 22.135 0 0 1 12.272 12.27c.508 1.268 2.344 1.268 2.851 0" fill="#FF2F00"/>
    </g>
</svg>
