<?xml version="1.0" encoding="UTF-8" standalone="no" ?>
<!DOCTYPE svg PUBLIC "-//W3C//DTD SVG 1.1//EN" "http://www.w3.org/Graphics/SVG/1.1/DTD/svg11.dtd">
<svg xmlns="http://www.w3.org/2000/svg" xmlns:xlink="http://www.w3.org/1999/xlink" version="1.1" width="100" height="100" viewBox="0 0 100 100" xml:space="preserve">
<desc>Created with Fabric.js 3.6.6</desc>
<defs>
</defs>
<g transform="matrix(1 0 0 1 50 50)"  >
<g style=""   >
		<g transform="matrix(1 0 0 1 0 0)"  >
<path style="stroke: none; stroke-width: 1; stroke-dasharray: none; stroke-linecap: butt; stroke-dashoffset: 0; stroke-linejoin: miter; stroke-miterlimit: 4; fill: none; fill-rule: evenodd; opacity: 1;"  transform=" translate(-50, -50)" d="M 0 0 h 100 v 100 H 0 z" stroke-linecap="round" />
</g>
		<g transform="matrix(1 0 0 1 -22 -22)"  >
<path style="stroke: none; stroke-width: 1; stroke-dasharray: none; stroke-linecap: butt; stroke-dashoffset: 0; stroke-linejoin: miter; stroke-miterlimit: 4; fill: rgb(255,103,0); fill-rule: evenodd; opacity: 1;"  transform=" translate(-22, -22)" d="M 44 19.234 C 42.596 8.384 33.33 0 22.097 0 C 9.893 0 0 9.893 0 22.096 C 0 33.334 8.393 42.603 19.252 44 L 44 19.234 z" stroke-linecap="round" />
</g>
		<g transform="matrix(1 0 0 1 22 -22)"  >
<path style="stroke: none; stroke-width: 1; stroke-dasharray: none; stroke-linecap: butt; stroke-dashoffset: 0; stroke-linejoin: miter; stroke-miterlimit: 4; fill: rgb(255,47,0); fill-rule: evenodd; opacity: 1;"  transform=" translate(-22, -22)" d="M 24.749 44 C 35.607 42.603 44 33.334 44 22.096 C 44 9.893 34.107 0 21.903 0 C 10.67 0 1.405 8.384 0 19.234 L 24.749 44 z" stroke-linecap="round" />
</g>
		<g transform="matrix(1 0 0 1 -22 22)"  >
<path style="stroke: none; stroke-width: 1; stroke-dasharray: none; stroke-linecap: butt; stroke-dashoffset: 0; stroke-linejoin: miter; stroke-miterlimit: 4; fill: rgb(255,47,0); fill-rule: evenodd; opacity: 1;"  transform=" translate(-22, -22)" d="M 19.251 0 C 8.393 1.397 0 10.666 0 21.904 C 0 34.107 9.893 44 22.097 44 C 33.33 44 42.596 35.616 44 24.766 L 19.251 0 z" stroke-linecap="round" />
</g>
		<g transform="matrix(1 0 0 1 22 22)"  >
<path style="stroke: none; stroke-width: 1; stroke-dasharray: none; stroke-linecap: butt; stroke-dashoffset: 0; stroke-linejoin: miter; stroke-miterlimit: 4; fill: rgb(255,103,0); fill-rule: evenodd; opacity: 1;"  transform=" translate(-22, -22)" d="M 24.749 0 L 0 24.766 C 1.405 35.616 10.67 44 21.903 44 C 34.107 44 44 34.107 44 21.904 C 44 10.666 35.607 1.397 24.749 0" stroke-linecap="round" />
</g>
		<g transform="matrix(1 0 0 1 0 -0.52)"  >
<path style="stroke: none; stroke-width: 1; stroke-dasharray: none; stroke-linecap: butt; stroke-dashoffset: 0; stroke-linejoin: miter; stroke-miterlimit: 4; fill: rgb(255,47,0); fill-rule: evenodd; opacity: 1;"  transform=" translate(-50, -49.48)" d="M 75.17 50.008 v -0.016 l -0.054 0.008 l 0.054 0.008 M 50.012 24.814 h -0.024 c 0.004 0.029 0.009 0.057 0.012 0.086 c 0.003 -0.029 0.008 -0.057 0.012 -0.086 M 49.988 74.138 h 0.024 c -0.004 -0.029 -0.009 -0.057 -0.012 -0.086 c -0.003 0.03 -0.008 0.057 -0.012 0.086 M 24.83 49.992 v 0.016 l 0.054 -0.008 l -0.054 -0.008" stroke-linecap="round" />
</g>
		<g transform="matrix(1 0 0 1 -0.38 -0.38)"  >
<path style="stroke: none; stroke-width: 1; stroke-dasharray: none; stroke-linecap: butt; stroke-dashoffset: 0; stroke-linejoin: miter; stroke-miterlimit: 4; fill: rgb(255,255,255); fill-rule: evenodd; opacity: 1;"  transform=" translate(-49.62, -49.62)" d="M 74.238 49.653 c -0.08 -0.01 -0.16 -0.025 -0.24 -0.034 c 0.08 -0.01 0.16 -0.024 0.24 -0.034 V 28.26 c 0 -1.8 -1.46 -3.26 -3.26 -3.26 H 49.67 c -0.017 0.129 -0.037 0.256 -0.052 0.386 c -0.015 -0.13 -0.036 -0.257 -0.052 -0.386 H 28.26 A 3.26 3.26 0 0 0 25 28.26 v 21.325 c 0.08 0.01 0.16 0.025 0.24 0.034 c -0.08 0.01 -0.16 0.024 -0.24 0.034 v 21.325 c 0 1.8 1.46 3.26 3.26 3.26 h 21.307 c 0.016 -0.129 0.037 -0.256 0.052 -0.386 c 0.015 0.13 0.035 0.257 0.052 0.386 h 21.307 c 1.8 0 3.26 -1.46 3.26 -3.26 V 49.653 z" stroke-linecap="round" />
</g>
		<g transform="matrix(1 0 0 1 -0.33 -0.33)"  >
<path style="stroke: none; stroke-width: 1; stroke-dasharray: none; stroke-linecap: butt; stroke-dashoffset: 0; stroke-linejoin: miter; stroke-miterlimit: 4; fill: rgb(255,47,0); fill-rule: evenodd; opacity: 1;"  transform=" translate(-49.67, -49.67)" d="M 51.092 63.383 a 22.135 22.135 0 0 1 12.273 -12.27 c 1.291 -0.52 1.291 -2.372 0 -2.892 a 22.135 22.135 0 0 1 -12.273 -12.27 c -0.507 -1.268 -2.343 -1.268 -2.85 0 a 22.135 22.135 0 0 1 -12.273 12.27 c -1.292 0.52 -1.292 2.372 0 2.891 a 22.135 22.135 0 0 1 12.272 12.27 c 0.508 1.268 2.344 1.268 2.851 0" stroke-linecap="round" />
</g>
</g>
</g>
</svg>